<?xml version="1.0" encoding="utf-8" standalone="no"?>
<!DOCTYPE svg PUBLIC "-//W3C//DTD SVG 1.1//EN"
  "http://www.w3.org/Graphics/SVG/1.1/DTD/svg11.dtd">
<svg xmlns:xlink="http://www.w3.org/1999/xlink" width="293.4pt" height="291.6pt" viewBox="0 0 293.4 291.6" xmlns="http://www.w3.org/2000/svg" version="1.1">
 <metadata>
  <rdf:RDF xmlns:dc="http://purl.org/dc/elements/1.1/" xmlns:cc="http://creativecommons.org/ns#" xmlns:rdf="http://www.w3.org/1999/02/22-rdf-syntax-ns#">
   <cc:Work>
    <dc:type rdf:resource="http://purl.org/dc/dcmitype/StillImage"/>
    <dc:date>2026-06-01T15:05:25.466278</dc:date>
    <dc:format>image/svg+xml</dc:format>
    <dc:creator>
     <cc:Agent>
      <dc:title>Matplotlib v3.10.9, https://matplotlib.org/</dc:title>
     </cc:Agent>
    </dc:creator>
   </cc:Work>
  </rdf:RDF>
 </metadata>
 <defs>
  <style type="text/css">*{stroke-linejoin: round; stroke-linecap: butt}</style>
 </defs>
 <g id="figure_1">
  <g id="patch_1">
   <path d="M 0 291.6 
L 293.4 291.6 
L 293.4 0 
L 0 0 
z
" style="fill: #ffffff"/>
  </g>
  <g id="axes_1">
   <g id="patch_2">
    <path d="M 100.765455 244.963655 
Q 108.976858 231.366278 117.766224 216.811844 
" style="fill: none; stroke: #000000; stroke-linecap: round"/>
    <path d="M 102.706679 243.736116 
L 100.765455 244.963655 
L 100.948159 242.674153 
" style="fill: none; stroke: #000000; stroke-linecap: round"/>
   </g>
   <g id="text_1">
    <g id="patch_3">
     <path d="M 67.877765 274.465914 
L 113.922235 274.465914 
L 113.922235 248.134086 
L 67.877765 248.134086 
z
" style="fill: #39e581; stroke: #000000; stroke-linejoin: miter"/>
    </g>
    <!-- node #8 -->
    <g transform="translate(79.889418 254.090761) scale(0.051358 -0.051358)">
     <defs>
      <path id="DejaVuSans-6e" d="M 3513 2113 
L 3513 0 
L 2938 0 
L 2938 2094 
Q 2938 2591 2744 2837 
Q 2550 3084 2163 3084 
Q 1697 3084 1428 2787 
Q 1159 2491 1159 1978 
L 1159 0 
L 581 0 
L 581 3500 
L 1159 3500 
L 1159 2956 
Q 1366 3272 1645 3428 
Q 1925 3584 2291 3584 
Q 2894 3584 3203 3211 
Q 3513 2838 3513 2113 
z
" transform="scale(0.015625)"/>
      <path id="DejaVuSans-6f" d="M 1959 3097 
Q 1497 3097 1228 2736 
Q 959 2375 959 1747 
Q 959 1119 1226 758 
Q 1494 397 1959 397 
Q 2419 397 2687 759 
Q 2956 1122 2956 1747 
Q 2956 2369 2687 2733 
Q 2419 3097 1959 3097 
z
M 1959 3584 
Q 2709 3584 3137 3096 
Q 3566 2609 3566 1747 
Q 3566 888 3137 398 
Q 2709 -91 1959 -91 
Q 1206 -91 779 398 
Q 353 888 353 1747 
Q 353 2609 779 3096 
Q 1206 3584 1959 3584 
z
" transform="scale(0.015625)"/>
      <path id="DejaVuSans-64" d="M 2906 2969 
L 2906 4863 
L 3481 4863 
L 3481 0 
L 2906 0 
L 2906 525 
Q 2725 213 2448 61 
Q 2172 -91 1784 -91 
Q 1150 -91 751 415 
Q 353 922 353 1747 
Q 353 2572 751 3078 
Q 1150 3584 1784 3584 
Q 2172 3584 2448 3432 
Q 2725 3281 2906 2969 
z
M 947 1747 
Q 947 1113 1208 752 
Q 1469 391 1925 391 
Q 2381 391 2643 752 
Q 2906 1113 2906 1747 
Q 2906 2381 2643 2742 
Q 2381 3103 1925 3103 
Q 1469 3103 1208 2742 
Q 947 2381 947 1747 
z
" transform="scale(0.015625)"/>
      <path id="DejaVuSans-65" d="M 3597 1894 
L 3597 1613 
L 953 1613 
Q 991 1019 1311 708 
Q 1631 397 2203 397 
Q 2534 397 2845 478 
Q 3156 559 3463 722 
L 3463 178 
Q 3153 47 2828 -22 
Q 2503 -91 2169 -91 
Q 1331 -91 842 396 
Q 353 884 353 1716 
Q 353 2575 817 3079 
Q 1281 3584 2069 3584 
Q 2775 3584 3186 3129 
Q 3597 2675 3597 1894 
z
M 3022 2063 
Q 3016 2534 2758 2815 
Q 2500 3097 2075 3097 
Q 1594 3097 1305 2825 
Q 1016 2553 972 2059 
L 3022 2063 
z
" transform="scale(0.015625)"/>
      <path id="DejaVuSans-20" transform="scale(0.015625)"/>
      <path id="DejaVuSans-23" d="M 3272 2816 
L 2363 2816 
L 2100 1772 
L 3016 1772 
L 3272 2816 
z
M 2803 4594 
L 2478 3297 
L 3391 3297 
L 3719 4594 
L 4219 4594 
L 3897 3297 
L 4872 3297 
L 4872 2816 
L 3775 2816 
L 3519 1772 
L 4513 1772 
L 4513 1294 
L 3397 1294 
L 3072 0 
L 2572 0 
L 2894 1294 
L 1978 1294 
L 1656 0 
L 1153 0 
L 1478 1294 
L 494 1294 
L 494 1772 
L 1594 1772 
L 1856 2816 
L 850 2816 
L 850 3297 
L 1978 3297 
L 2297 4594 
L 2803 4594 
z
" transform="scale(0.015625)"/>
      <path id="DejaVuSans-38" d="M 2034 2216 
Q 1584 2216 1326 1975 
Q 1069 1734 1069 1313 
Q 1069 891 1326 650 
Q 1584 409 2034 409 
Q 2484 409 2743 651 
Q 3003 894 3003 1313 
Q 3003 1734 2745 1975 
Q 2488 2216 2034 2216 
z
M 1403 2484 
Q 997 2584 770 2862 
Q 544 3141 544 3541 
Q 544 4100 942 4425 
Q 1341 4750 2034 4750 
Q 2731 4750 3128 4425 
Q 3525 4100 3525 3541 
Q 3525 3141 3298 2862 
Q 3072 2584 2669 2484 
Q 3125 2378 3379 2068 
Q 3634 1759 3634 1313 
Q 3634 634 3220 271 
Q 2806 -91 2034 -91 
Q 1263 -91 848 271 
Q 434 634 434 1313 
Q 434 1759 690 2068 
Q 947 2378 1403 2484 
z
M 1172 3481 
Q 1172 3119 1398 2916 
Q 1625 2713 2034 2713 
Q 2441 2713 2670 2916 
Q 2900 3119 2900 3481 
Q 2900 3844 2670 4047 
Q 2441 4250 2034 4250 
Q 1625 4250 1398 4047 
Q 1172 3844 1172 3481 
z
" transform="scale(0.015625)"/>
     </defs>
     <use xlink:href="#DejaVuSans-6e"/>
     <use xlink:href="#DejaVuSans-6f" transform="translate(63.378906 0)"/>
     <use xlink:href="#DejaVuSans-64" transform="translate(124.560547 0)"/>
     <use xlink:href="#DejaVuSans-65" transform="translate(188.037109 0)"/>
     <use xlink:href="#DejaVuSans-20" transform="translate(249.560547 0)"/>
     <use xlink:href="#DejaVuSans-23" transform="translate(281.347656 0)"/>
     <use xlink:href="#DejaVuSans-38" transform="translate(365.136719 0)"/>
    </g>
    <!-- gini = 0.0 -->
    <g transform="translate(78.347889 259.841686) scale(0.051358 -0.051358)">
     <defs>
      <path id="DejaVuSans-67" d="M 2906 1791 
Q 2906 2416 2648 2759 
Q 2391 3103 1925 3103 
Q 1463 3103 1205 2759 
Q 947 2416 947 1791 
Q 947 1169 1205 825 
Q 1463 481 1925 481 
Q 2391 481 2648 825 
Q 2906 1169 2906 1791 
z
M 3481 434 
Q 3481 -459 3084 -895 
Q 2688 -1331 1869 -1331 
Q 1566 -1331 1297 -1286 
Q 1028 -1241 775 -1147 
L 775 -588 
Q 1028 -725 1275 -790 
Q 1522 -856 1778 -856 
Q 2344 -856 2625 -561 
Q 2906 -266 2906 331 
L 2906 616 
Q 2728 306 2450 153 
Q 2172 0 1784 0 
Q 1141 0 747 490 
Q 353 981 353 1791 
Q 353 2603 747 3093 
Q 1141 3584 1784 3584 
Q 2172 3584 2450 3431 
Q 2728 3278 2906 2969 
L 2906 3500 
L 3481 3500 
L 3481 434 
z
" transform="scale(0.015625)"/>
      <path id="DejaVuSans-69" d="M 603 3500 
L 1178 3500 
L 1178 0 
L 603 0 
L 603 3500 
z
M 603 4863 
L 1178 4863 
L 1178 4134 
L 603 4134 
L 603 4863 
z
" transform="scale(0.015625)"/>
      <path id="DejaVuSans-3d" d="M 678 2906 
L 4684 2906 
L 4684 2381 
L 678 2381 
L 678 2906 
z
M 678 1631 
L 4684 1631 
L 4684 1100 
L 678 1100 
L 678 1631 
z
" transform="scale(0.015625)"/>
      <path id="DejaVuSans-30" d="M 2034 4250 
Q 1547 4250 1301 3770 
Q 1056 3291 1056 2328 
Q 1056 1369 1301 889 
Q 1547 409 2034 409 
Q 2525 409 2770 889 
Q 3016 1369 3016 2328 
Q 3016 3291 2770 3770 
Q 2525 4250 2034 4250 
z
M 2034 4750 
Q 2819 4750 3233 4129 
Q 3647 3509 3647 2328 
Q 3647 1150 3233 529 
Q 2819 -91 2034 -91 
Q 1250 -91 836 529 
Q 422 1150 422 2328 
Q 422 3509 836 4129 
Q 1250 4750 2034 4750 
z
" transform="scale(0.015625)"/>
      <path id="DejaVuSans-2e" d="M 684 794 
L 1344 794 
L 1344 0 
L 684 0 
L 684 794 
z
" transform="scale(0.015625)"/>
     </defs>
     <use xlink:href="#DejaVuSans-67"/>
     <use xlink:href="#DejaVuSans-69" transform="translate(63.476562 0)"/>
     <use xlink:href="#DejaVuSans-6e" transform="translate(91.259766 0)"/>
     <use xlink:href="#DejaVuSans-69" transform="translate(154.638672 0)"/>
     <use xlink:href="#DejaVuSans-20" transform="translate(182.421875 0)"/>
     <use xlink:href="#DejaVuSans-3d" transform="translate(214.208984 0)"/>
     <use xlink:href="#DejaVuSans-20" transform="translate(297.998047 0)"/>
     <use xlink:href="#DejaVuSans-30" transform="translate(329.785156 0)"/>
     <use xlink:href="#DejaVuSans-2e" transform="translate(393.408203 0)"/>
     <use xlink:href="#DejaVuSans-30" transform="translate(425.195312 0)"/>
    </g>
    <!-- samples = 1 -->
    <g transform="translate(74.808229 265.59261) scale(0.051358 -0.051358)">
     <defs>
      <path id="DejaVuSans-73" d="M 2834 3397 
L 2834 2853 
Q 2591 2978 2328 3040 
Q 2066 3103 1784 3103 
Q 1356 3103 1142 2972 
Q 928 2841 928 2578 
Q 928 2378 1081 2264 
Q 1234 2150 1697 2047 
L 1894 2003 
Q 2506 1872 2764 1633 
Q 3022 1394 3022 966 
Q 3022 478 2636 193 
Q 2250 -91 1575 -91 
Q 1294 -91 989 -36 
Q 684 19 347 128 
L 347 722 
Q 666 556 975 473 
Q 1284 391 1588 391 
Q 1994 391 2212 530 
Q 2431 669 2431 922 
Q 2431 1156 2273 1281 
Q 2116 1406 1581 1522 
L 1381 1569 
Q 847 1681 609 1914 
Q 372 2147 372 2553 
Q 372 3047 722 3315 
Q 1072 3584 1716 3584 
Q 2034 3584 2315 3537 
Q 2597 3491 2834 3397 
z
" transform="scale(0.015625)"/>
      <path id="DejaVuSans-61" d="M 2194 1759 
Q 1497 1759 1228 1600 
Q 959 1441 959 1056 
Q 959 750 1161 570 
Q 1363 391 1709 391 
Q 2188 391 2477 730 
Q 2766 1069 2766 1631 
L 2766 1759 
L 2194 1759 
z
M 3341 1997 
L 3341 0 
L 2766 0 
L 2766 531 
Q 2569 213 2275 61 
Q 1981 -91 1556 -91 
Q 1019 -91 701 211 
Q 384 513 384 1019 
Q 384 1609 779 1909 
Q 1175 2209 1959 2209 
L 2766 2209 
L 2766 2266 
Q 2766 2663 2505 2880 
Q 2244 3097 1772 3097 
Q 1472 3097 1187 3025 
Q 903 2953 641 2809 
L 641 3341 
Q 956 3463 1253 3523 
Q 1550 3584 1831 3584 
Q 2591 3584 2966 3190 
Q 3341 2797 3341 1997 
z
" transform="scale(0.015625)"/>
      <path id="DejaVuSans-6d" d="M 3328 2828 
Q 3544 3216 3844 3400 
Q 4144 3584 4550 3584 
Q 5097 3584 5394 3201 
Q 5691 2819 5691 2113 
L 5691 0 
L 5113 0 
L 5113 2094 
Q 5113 2597 4934 2840 
Q 4756 3084 4391 3084 
Q 3944 3084 3684 2787 
Q 3425 2491 3425 1978 
L 3425 0 
L 2847 0 
L 2847 2094 
Q 2847 2600 2669 2842 
Q 2491 3084 2119 3084 
Q 1678 3084 1418 2786 
Q 1159 2488 1159 1978 
L 1159 0 
L 581 0 
L 581 3500 
L 1159 3500 
L 1159 2956 
Q 1356 3278 1631 3431 
Q 1906 3584 2284 3584 
Q 2666 3584 2933 3390 
Q 3200 3197 3328 2828 
z
" transform="scale(0.015625)"/>
      <path id="DejaVuSans-70" d="M 1159 525 
L 1159 -1331 
L 581 -1331 
L 581 3500 
L 1159 3500 
L 1159 2969 
Q 1341 3281 1617 3432 
Q 1894 3584 2278 3584 
Q 2916 3584 3314 3078 
Q 3713 2572 3713 1747 
Q 3713 922 3314 415 
Q 2916 -91 2278 -91 
Q 1894 -91 1617 61 
Q 1341 213 1159 525 
z
M 3116 1747 
Q 3116 2381 2855 2742 
Q 2594 3103 2138 3103 
Q 1681 3103 1420 2742 
Q 1159 2381 1159 1747 
Q 1159 1113 1420 752 
Q 1681 391 2138 391 
Q 2594 391 2855 752 
Q 3116 1113 3116 1747 
z
" transform="scale(0.015625)"/>
      <path id="DejaVuSans-6c" d="M 603 4863 
L 1178 4863 
L 1178 0 
L 603 0 
L 603 4863 
z
" transform="scale(0.015625)"/>
      <path id="DejaVuSans-31" d="M 794 531 
L 1825 531 
L 1825 4091 
L 703 3866 
L 703 4441 
L 1819 4666 
L 2450 4666 
L 2450 531 
L 3481 531 
L 3481 0 
L 794 0 
L 794 531 
z
" transform="scale(0.015625)"/>
     </defs>
     <use xlink:href="#DejaVuSans-73"/>
     <use xlink:href="#DejaVuSans-61" transform="translate(52.099609 0)"/>
     <use xlink:href="#DejaVuSans-6d" transform="translate(113.378906 0)"/>
     <use xlink:href="#DejaVuSans-70" transform="translate(210.791016 0)"/>
     <use xlink:href="#DejaVuSans-6c" transform="translate(274.267578 0)"/>
     <use xlink:href="#DejaVuSans-65" transform="translate(302.050781 0)"/>
     <use xlink:href="#DejaVuSans-73" transform="translate(363.574219 0)"/>
     <use xlink:href="#DejaVuSans-20" transform="translate(415.673828 0)"/>
     <use xlink:href="#DejaVuSans-3d" transform="translate(447.460938 0)"/>
     <use xlink:href="#DejaVuSans-20" transform="translate(531.25 0)"/>
     <use xlink:href="#DejaVuSans-31" transform="translate(563.037109 0)"/>
    </g>
    <!-- value = [0, 1, 0] -->
    <g transform="translate(69.932068 271.343535) scale(0.051358 -0.051358)">
     <defs>
      <path id="DejaVuSans-76" d="M 191 3500 
L 800 3500 
L 1894 563 
L 2988 3500 
L 3597 3500 
L 2284 0 
L 1503 0 
L 191 3500 
z
" transform="scale(0.015625)"/>
      <path id="DejaVuSans-75" d="M 544 1381 
L 544 3500 
L 1119 3500 
L 1119 1403 
Q 1119 906 1312 657 
Q 1506 409 1894 409 
Q 2359 409 2629 706 
Q 2900 1003 2900 1516 
L 2900 3500 
L 3475 3500 
L 3475 0 
L 2900 0 
L 2900 538 
Q 2691 219 2414 64 
Q 2138 -91 1772 -91 
Q 1169 -91 856 284 
Q 544 659 544 1381 
z
M 1991 3584 
L 1991 3584 
z
" transform="scale(0.015625)"/>
      <path id="DejaVuSans-5b" d="M 550 4863 
L 1875 4863 
L 1875 4416 
L 1125 4416 
L 1125 -397 
L 1875 -397 
L 1875 -844 
L 550 -844 
L 550 4863 
z
" transform="scale(0.015625)"/>
      <path id="DejaVuSans-2c" d="M 750 794 
L 1409 794 
L 1409 256 
L 897 -744 
L 494 -744 
L 750 256 
L 750 794 
z
" transform="scale(0.015625)"/>
      <path id="DejaVuSans-5d" d="M 1947 4863 
L 1947 -844 
L 622 -844 
L 622 -397 
L 1369 -397 
L 1369 4416 
L 622 4416 
L 622 4863 
L 1947 4863 
z
" transform="scale(0.015625)"/>
     </defs>
     <use xlink:href="#DejaVuSans-76"/>
     <use xlink:href="#DejaVuSans-61" transform="translate(59.179688 0)"/>
     <use xlink:href="#DejaVuSans-6c" transform="translate(120.458984 0)"/>
     <use xlink:href="#DejaVuSans-75" transform="translate(148.242188 0)"/>
     <use xlink:href="#DejaVuSans-65" transform="translate(211.621094 0)"/>
     <use xlink:href="#DejaVuSans-20" transform="translate(273.144531 0)"/>
     <use xlink:href="#DejaVuSans-3d" transform="translate(304.931641 0)"/>
     <use xlink:href="#DejaVuSans-20" transform="translate(388.720703 0)"/>
     <use xlink:href="#DejaVuSans-5b" transform="translate(420.507812 0)"/>
     <use xlink:href="#DejaVuSans-30" transform="translate(459.521484 0)"/>
     <use xlink:href="#DejaVuSans-2c" transform="translate(523.144531 0)"/>
     <use xlink:href="#DejaVuSans-20" transform="translate(554.931641 0)"/>
     <use xlink:href="#DejaVuSans-31" transform="translate(586.71875 0)"/>
     <use xlink:href="#DejaVuSans-2c" transform="translate(650.341797 0)"/>
     <use xlink:href="#DejaVuSans-20" transform="translate(682.128906 0)"/>
     <use xlink:href="#DejaVuSans-30" transform="translate(713.916016 0)"/>
     <use xlink:href="#DejaVuSans-5d" transform="translate(777.539062 0)"/>
    </g>
   </g>
   <g id="patch_4">
    <path d="M 136.834545 244.963655 
Q 128.623142 231.366278 119.833776 216.811844 
" style="fill: none; stroke: #000000; stroke-linecap: round"/>
    <path d="M 136.651841 242.674153 
L 136.834545 244.963655 
L 134.893321 243.736116 
" style="fill: none; stroke: #000000; stroke-linecap: round"/>
   </g>
   <g id="text_2">
    <g id="patch_5">
     <path d="M 123.677765 274.465914 
L 169.722235 274.465914 
L 169.722235 248.134086 
L 123.677765 248.134086 
z
" style="fill: #8139e5; stroke: #000000; stroke-linejoin: miter"/>
    </g>
    <!-- node #9 -->
    <g transform="translate(135.689418 254.090761) scale(0.051358 -0.051358)">
     <defs>
      <path id="DejaVuSans-39" d="M 703 97 
L 703 672 
Q 941 559 1184 500 
Q 1428 441 1663 441 
Q 2288 441 2617 861 
Q 2947 1281 2994 2138 
Q 2813 1869 2534 1725 
Q 2256 1581 1919 1581 
Q 1219 1581 811 2004 
Q 403 2428 403 3163 
Q 403 3881 828 4315 
Q 1253 4750 1959 4750 
Q 2769 4750 3195 4129 
Q 3622 3509 3622 2328 
Q 3622 1225 3098 567 
Q 2575 -91 1691 -91 
Q 1453 -91 1209 -44 
Q 966 3 703 97 
z
M 1959 2075 
Q 2384 2075 2632 2365 
Q 2881 2656 2881 3163 
Q 2881 3666 2632 3958 
Q 2384 4250 1959 4250 
Q 1534 4250 1286 3958 
Q 1038 3666 1038 3163 
Q 1038 2656 1286 2365 
Q 1534 2075 1959 2075 
z
" transform="scale(0.015625)"/>
     </defs>
     <use xlink:href="#DejaVuSans-6e"/>
     <use xlink:href="#DejaVuSans-6f" transform="translate(63.378906 0)"/>
     <use xlink:href="#DejaVuSans-64" transform="translate(124.560547 0)"/>
     <use xlink:href="#DejaVuSans-65" transform="translate(188.037109 0)"/>
     <use xlink:href="#DejaVuSans-20" transform="translate(249.560547 0)"/>
     <use xlink:href="#DejaVuSans-23" transform="translate(281.347656 0)"/>
     <use xlink:href="#DejaVuSans-39" transform="translate(365.136719 0)"/>
    </g>
    <!-- gini = 0.0 -->
    <g transform="translate(134.147889 259.841686) scale(0.051358 -0.051358)">
     <use xlink:href="#DejaVuSans-67"/>
     <use xlink:href="#DejaVuSans-69" transform="translate(63.476562 0)"/>
     <use xlink:href="#DejaVuSans-6e" transform="translate(91.259766 0)"/>
     <use xlink:href="#DejaVuSans-69" transform="translate(154.638672 0)"/>
     <use xlink:href="#DejaVuSans-20" transform="translate(182.421875 0)"/>
     <use xlink:href="#DejaVuSans-3d" transform="translate(214.208984 0)"/>
     <use xlink:href="#DejaVuSans-20" transform="translate(297.998047 0)"/>
     <use xlink:href="#DejaVuSans-30" transform="translate(329.785156 0)"/>
     <use xlink:href="#DejaVuSans-2e" transform="translate(393.408203 0)"/>
     <use xlink:href="#DejaVuSans-30" transform="translate(425.195312 0)"/>
    </g>
    <!-- samples = 1 -->
    <g transform="translate(130.608229 265.59261) scale(0.051358 -0.051358)">
     <use xlink:href="#DejaVuSans-73"/>
     <use xlink:href="#DejaVuSans-61" transform="translate(52.099609 0)"/>
     <use xlink:href="#DejaVuSans-6d" transform="translate(113.378906 0)"/>
     <use xlink:href="#DejaVuSans-70" transform="translate(210.791016 0)"/>
     <use xlink:href="#DejaVuSans-6c" transform="translate(274.267578 0)"/>
     <use xlink:href="#DejaVuSans-65" transform="translate(302.050781 0)"/>
     <use xlink:href="#DejaVuSans-73" transform="translate(363.574219 0)"/>
     <use xlink:href="#DejaVuSans-20" transform="translate(415.673828 0)"/>
     <use xlink:href="#DejaVuSans-3d" transform="translate(447.460938 0)"/>
     <use xlink:href="#DejaVuSans-20" transform="translate(531.25 0)"/>
     <use xlink:href="#DejaVuSans-31" transform="translate(563.037109 0)"/>
    </g>
    <!-- value = [0, 0, 1] -->
    <g transform="translate(125.732068 271.343535) scale(0.051358 -0.051358)">
     <use xlink:href="#DejaVuSans-76"/>
     <use xlink:href="#DejaVuSans-61" transform="translate(59.179688 0)"/>
     <use xlink:href="#DejaVuSans-6c" transform="translate(120.458984 0)"/>
     <use xlink:href="#DejaVuSans-75" transform="translate(148.242188 0)"/>
     <use xlink:href="#DejaVuSans-65" transform="translate(211.621094 0)"/>
     <use xlink:href="#DejaVuSans-20" transform="translate(273.144531 0)"/>
     <use xlink:href="#DejaVuSans-3d" transform="translate(304.931641 0)"/>
     <use xlink:href="#DejaVuSans-20" transform="translate(388.720703 0)"/>
     <use xlink:href="#DejaVuSans-5b" transform="translate(420.507812 0)"/>
     <use xlink:href="#DejaVuSans-30" transform="translate(459.521484 0)"/>
     <use xlink:href="#DejaVuSans-2c" transform="translate(523.144531 0)"/>
     <use xlink:href="#DejaVuSans-20" transform="translate(554.931641 0)"/>
     <use xlink:href="#DejaVuSans-30" transform="translate(586.71875 0)"/>
     <use xlink:href="#DejaVuSans-2c" transform="translate(650.341797 0)"/>
     <use xlink:href="#DejaVuSans-20" transform="translate(682.128906 0)"/>
     <use xlink:href="#DejaVuSans-31" transform="translate(713.916016 0)"/>
     <use xlink:href="#DejaVuSans-5d" transform="translate(777.539062 0)"/>
    </g>
   </g>
   <g id="patch_6">
    <path d="M 72.865455 198.763655 
Q 81.076858 185.166278 89.866224 170.611844 
" style="fill: none; stroke: #000000; stroke-linecap: round"/>
    <path d="M 74.806679 197.536116 
L 72.865455 198.763655 
L 73.048159 196.474153 
" style="fill: none; stroke: #000000; stroke-linecap: round"/>
   </g>
   <g id="text_3">
    <g id="patch_7">
     <path d="M 39.977765 228.265914 
L 86.022235 228.265914 
L 86.022235 201.934086 
L 39.977765 201.934086 
z
" style="fill: #8139e5; stroke: #000000; stroke-linejoin: miter"/>
    </g>
    <!-- node #6 -->
    <g transform="translate(51.989418 207.890761) scale(0.051358 -0.051358)">
     <defs>
      <path id="DejaVuSans-36" d="M 2113 2584 
Q 1688 2584 1439 2293 
Q 1191 2003 1191 1497 
Q 1191 994 1439 701 
Q 1688 409 2113 409 
Q 2538 409 2786 701 
Q 3034 994 3034 1497 
Q 3034 2003 2786 2293 
Q 2538 2584 2113 2584 
z
M 3366 4563 
L 3366 3988 
Q 3128 4100 2886 4159 
Q 2644 4219 2406 4219 
Q 1781 4219 1451 3797 
Q 1122 3375 1075 2522 
Q 1259 2794 1537 2939 
Q 1816 3084 2150 3084 
Q 2853 3084 3261 2657 
Q 3669 2231 3669 1497 
Q 3669 778 3244 343 
Q 2819 -91 2113 -91 
Q 1303 -91 875 529 
Q 447 1150 447 2328 
Q 447 3434 972 4092 
Q 1497 4750 2381 4750 
Q 2619 4750 2861 4703 
Q 3103 4656 3366 4563 
z
" transform="scale(0.015625)"/>
     </defs>
     <use xlink:href="#DejaVuSans-6e"/>
     <use xlink:href="#DejaVuSans-6f" transform="translate(63.378906 0)"/>
     <use xlink:href="#DejaVuSans-64" transform="translate(124.560547 0)"/>
     <use xlink:href="#DejaVuSans-65" transform="translate(188.037109 0)"/>
     <use xlink:href="#DejaVuSans-20" transform="translate(249.560547 0)"/>
     <use xlink:href="#DejaVuSans-23" transform="translate(281.347656 0)"/>
     <use xlink:href="#DejaVuSans-36" transform="translate(365.136719 0)"/>
    </g>
    <!-- gini = 0.0 -->
    <g transform="translate(50.447889 213.641686) scale(0.051358 -0.051358)">
     <use xlink:href="#DejaVuSans-67"/>
     <use xlink:href="#DejaVuSans-69" transform="translate(63.476562 0)"/>
     <use xlink:href="#DejaVuSans-6e" transform="translate(91.259766 0)"/>
     <use xlink:href="#DejaVuSans-69" transform="translate(154.638672 0)"/>
     <use xlink:href="#DejaVuSans-20" transform="translate(182.421875 0)"/>
     <use xlink:href="#DejaVuSans-3d" transform="translate(214.208984 0)"/>
     <use xlink:href="#DejaVuSans-20" transform="translate(297.998047 0)"/>
     <use xlink:href="#DejaVuSans-30" transform="translate(329.785156 0)"/>
     <use xlink:href="#DejaVuSans-2e" transform="translate(393.408203 0)"/>
     <use xlink:href="#DejaVuSans-30" transform="translate(425.195312 0)"/>
    </g>
    <!-- samples = 3 -->
    <g transform="translate(46.908229 219.39261) scale(0.051358 -0.051358)">
     <defs>
      <path id="DejaVuSans-33" d="M 2597 2516 
Q 3050 2419 3304 2112 
Q 3559 1806 3559 1356 
Q 3559 666 3084 287 
Q 2609 -91 1734 -91 
Q 1441 -91 1130 -33 
Q 819 25 488 141 
L 488 750 
Q 750 597 1062 519 
Q 1375 441 1716 441 
Q 2309 441 2620 675 
Q 2931 909 2931 1356 
Q 2931 1769 2642 2001 
Q 2353 2234 1838 2234 
L 1294 2234 
L 1294 2753 
L 1863 2753 
Q 2328 2753 2575 2939 
Q 2822 3125 2822 3475 
Q 2822 3834 2567 4026 
Q 2313 4219 1838 4219 
Q 1578 4219 1281 4162 
Q 984 4106 628 3988 
L 628 4550 
Q 988 4650 1302 4700 
Q 1616 4750 1894 4750 
Q 2613 4750 3031 4423 
Q 3450 4097 3450 3541 
Q 3450 3153 3228 2886 
Q 3006 2619 2597 2516 
z
" transform="scale(0.015625)"/>
     </defs>
     <use xlink:href="#DejaVuSans-73"/>
     <use xlink:href="#DejaVuSans-61" transform="translate(52.099609 0)"/>
     <use xlink:href="#DejaVuSans-6d" transform="translate(113.378906 0)"/>
     <use xlink:href="#DejaVuSans-70" transform="translate(210.791016 0)"/>
     <use xlink:href="#DejaVuSans-6c" transform="translate(274.267578 0)"/>
     <use xlink:href="#DejaVuSans-65" transform="translate(302.050781 0)"/>
     <use xlink:href="#DejaVuSans-73" transform="translate(363.574219 0)"/>
     <use xlink:href="#DejaVuSans-20" transform="translate(415.673828 0)"/>
     <use xlink:href="#DejaVuSans-3d" transform="translate(447.460938 0)"/>
     <use xlink:href="#DejaVuSans-20" transform="translate(531.25 0)"/>
     <use xlink:href="#DejaVuSans-33" transform="translate(563.037109 0)"/>
    </g>
    <!-- value = [0, 0, 3] -->
    <g transform="translate(42.032068 225.143535) scale(0.051358 -0.051358)">
     <use xlink:href="#DejaVuSans-76"/>
     <use xlink:href="#DejaVuSans-61" transform="translate(59.179688 0)"/>
     <use xlink:href="#DejaVuSans-6c" transform="translate(120.458984 0)"/>
     <use xlink:href="#DejaVuSans-75" transform="translate(148.242188 0)"/>
     <use xlink:href="#DejaVuSans-65" transform="translate(211.621094 0)"/>
     <use xlink:href="#DejaVuSans-20" transform="translate(273.144531 0)"/>
     <use xlink:href="#DejaVuSans-3d" transform="translate(304.931641 0)"/>
     <use xlink:href="#DejaVuSans-20" transform="translate(388.720703 0)"/>
     <use xlink:href="#DejaVuSans-5b" transform="translate(420.507812 0)"/>
     <use xlink:href="#DejaVuSans-30" transform="translate(459.521484 0)"/>
     <use xlink:href="#DejaVuSans-2c" transform="translate(523.144531 0)"/>
     <use xlink:href="#DejaVuSans-20" transform="translate(554.931641 0)"/>
     <use xlink:href="#DejaVuSans-30" transform="translate(586.71875 0)"/>
     <use xlink:href="#DejaVuSans-2c" transform="translate(650.341797 0)"/>
     <use xlink:href="#DejaVuSans-20" transform="translate(682.128906 0)"/>
     <use xlink:href="#DejaVuSans-33" transform="translate(713.916016 0)"/>
     <use xlink:href="#DejaVuSans-5d" transform="translate(777.539062 0)"/>
    </g>
   </g>
   <g id="patch_8">
    <path d="M 107.197171 195.886713 
Q 99.853585 183.726367 91.932036 170.608964 
" style="fill: none; stroke: #000000; stroke-linecap: round"/>
    <path d="M 107.014468 193.597211 
L 107.197171 195.886713 
L 105.255947 194.659175 
" style="fill: none; stroke: #000000; stroke-linecap: round"/>
   </g>
   <g id="text_4">
    <g id="patch_9">
     <path d="M 95.777765 231.141377 
L 141.822235 231.141377 
L 141.822235 199.058623 
L 95.777765 199.058623 
z
" style="fill: #ffffff; stroke: #000000; stroke-linejoin: miter"/>
    </g>
    <!-- node #7 -->
    <g transform="translate(107.789418 205.015299) scale(0.051358 -0.051358)">
     <defs>
      <path id="DejaVuSans-37" d="M 525 4666 
L 3525 4666 
L 3525 4397 
L 1831 0 
L 1172 0 
L 2766 4134 
L 525 4134 
L 525 4666 
z
" transform="scale(0.015625)"/>
     </defs>
     <use xlink:href="#DejaVuSans-6e"/>
     <use xlink:href="#DejaVuSans-6f" transform="translate(63.378906 0)"/>
     <use xlink:href="#DejaVuSans-64" transform="translate(124.560547 0)"/>
     <use xlink:href="#DejaVuSans-65" transform="translate(188.037109 0)"/>
     <use xlink:href="#DejaVuSans-20" transform="translate(249.560547 0)"/>
     <use xlink:href="#DejaVuSans-23" transform="translate(281.347656 0)"/>
     <use xlink:href="#DejaVuSans-37" transform="translate(365.136719 0)"/>
    </g>
    <!-- x[2] &lt;= 5.45 -->
    <g transform="translate(101.989223 210.766224) scale(0.051358 -0.051358)">
     <defs>
      <path id="DejaVuSans-78" d="M 3513 3500 
L 2247 1797 
L 3578 0 
L 2900 0 
L 1881 1375 
L 863 0 
L 184 0 
L 1544 1831 
L 300 3500 
L 978 3500 
L 1906 2253 
L 2834 3500 
L 3513 3500 
z
" transform="scale(0.015625)"/>
      <path id="DejaVuSans-32" d="M 1228 531 
L 3431 531 
L 3431 0 
L 469 0 
L 469 531 
Q 828 903 1448 1529 
Q 2069 2156 2228 2338 
Q 2531 2678 2651 2914 
Q 2772 3150 2772 3378 
Q 2772 3750 2511 3984 
Q 2250 4219 1831 4219 
Q 1534 4219 1204 4116 
Q 875 4013 500 3803 
L 500 4441 
Q 881 4594 1212 4672 
Q 1544 4750 1819 4750 
Q 2544 4750 2975 4387 
Q 3406 4025 3406 3419 
Q 3406 3131 3298 2873 
Q 3191 2616 2906 2266 
Q 2828 2175 2409 1742 
Q 1991 1309 1228 531 
z
" transform="scale(0.015625)"/>
      <path id="DejaVuSans-3c" d="M 4684 3150 
L 1459 2003 
L 4684 863 
L 4684 294 
L 678 1747 
L 678 2266 
L 4684 3719 
L 4684 3150 
z
" transform="scale(0.015625)"/>
      <path id="DejaVuSans-35" d="M 691 4666 
L 3169 4666 
L 3169 4134 
L 1269 4134 
L 1269 2991 
Q 1406 3038 1543 3061 
Q 1681 3084 1819 3084 
Q 2600 3084 3056 2656 
Q 3513 2228 3513 1497 
Q 3513 744 3044 326 
Q 2575 -91 1722 -91 
Q 1428 -91 1123 -41 
Q 819 9 494 109 
L 494 744 
Q 775 591 1075 516 
Q 1375 441 1709 441 
Q 2250 441 2565 725 
Q 2881 1009 2881 1497 
Q 2881 1984 2565 2268 
Q 2250 2553 1709 2553 
Q 1456 2553 1204 2497 
Q 953 2441 691 2322 
L 691 4666 
z
" transform="scale(0.015625)"/>
      <path id="DejaVuSans-34" d="M 2419 4116 
L 825 1625 
L 2419 1625 
L 2419 4116 
z
M 2253 4666 
L 3047 4666 
L 3047 1625 
L 3713 1625 
L 3713 1100 
L 3047 1100 
L 3047 0 
L 2419 0 
L 2419 1100 
L 313 1100 
L 313 1709 
L 2253 4666 
z
" transform="scale(0.015625)"/>
     </defs>
     <use xlink:href="#DejaVuSans-78"/>
     <use xlink:href="#DejaVuSans-5b" transform="translate(59.179688 0)"/>
     <use xlink:href="#DejaVuSans-32" transform="translate(98.193359 0)"/>
     <use xlink:href="#DejaVuSans-5d" transform="translate(161.816406 0)"/>
     <use xlink:href="#DejaVuSans-20" transform="translate(200.830078 0)"/>
     <use xlink:href="#DejaVuSans-3c" transform="translate(232.617188 0)"/>
     <use xlink:href="#DejaVuSans-3d" transform="translate(316.40625 0)"/>
     <use xlink:href="#DejaVuSans-20" transform="translate(400.195312 0)"/>
     <use xlink:href="#DejaVuSans-35" transform="translate(431.982422 0)"/>
     <use xlink:href="#DejaVuSans-2e" transform="translate(495.605469 0)"/>
     <use xlink:href="#DejaVuSans-34" transform="translate(527.392578 0)"/>
     <use xlink:href="#DejaVuSans-35" transform="translate(591.015625 0)"/>
    </g>
    <!-- gini = 0.5 -->
    <g transform="translate(106.247889 216.517148) scale(0.051358 -0.051358)">
     <use xlink:href="#DejaVuSans-67"/>
     <use xlink:href="#DejaVuSans-69" transform="translate(63.476562 0)"/>
     <use xlink:href="#DejaVuSans-6e" transform="translate(91.259766 0)"/>
     <use xlink:href="#DejaVuSans-69" transform="translate(154.638672 0)"/>
     <use xlink:href="#DejaVuSans-20" transform="translate(182.421875 0)"/>
     <use xlink:href="#DejaVuSans-3d" transform="translate(214.208984 0)"/>
     <use xlink:href="#DejaVuSans-20" transform="translate(297.998047 0)"/>
     <use xlink:href="#DejaVuSans-30" transform="translate(329.785156 0)"/>
     <use xlink:href="#DejaVuSans-2e" transform="translate(393.408203 0)"/>
     <use xlink:href="#DejaVuSans-35" transform="translate(425.195312 0)"/>
    </g>
    <!-- samples = 2 -->
    <g transform="translate(102.708229 222.268072) scale(0.051358 -0.051358)">
     <use xlink:href="#DejaVuSans-73"/>
     <use xlink:href="#DejaVuSans-61" transform="translate(52.099609 0)"/>
     <use xlink:href="#DejaVuSans-6d" transform="translate(113.378906 0)"/>
     <use xlink:href="#DejaVuSans-70" transform="translate(210.791016 0)"/>
     <use xlink:href="#DejaVuSans-6c" transform="translate(274.267578 0)"/>
     <use xlink:href="#DejaVuSans-65" transform="translate(302.050781 0)"/>
     <use xlink:href="#DejaVuSans-73" transform="translate(363.574219 0)"/>
     <use xlink:href="#DejaVuSans-20" transform="translate(415.673828 0)"/>
     <use xlink:href="#DejaVuSans-3d" transform="translate(447.460938 0)"/>
     <use xlink:href="#DejaVuSans-20" transform="translate(531.25 0)"/>
     <use xlink:href="#DejaVuSans-32" transform="translate(563.037109 0)"/>
    </g>
    <!-- value = [0, 1, 1] -->
    <g transform="translate(97.832068 228.018997) scale(0.051358 -0.051358)">
     <use xlink:href="#DejaVuSans-76"/>
     <use xlink:href="#DejaVuSans-61" transform="translate(59.179688 0)"/>
     <use xlink:href="#DejaVuSans-6c" transform="translate(120.458984 0)"/>
     <use xlink:href="#DejaVuSans-75" transform="translate(148.242188 0)"/>
     <use xlink:href="#DejaVuSans-65" transform="translate(211.621094 0)"/>
     <use xlink:href="#DejaVuSans-20" transform="translate(273.144531 0)"/>
     <use xlink:href="#DejaVuSans-3d" transform="translate(304.931641 0)"/>
     <use xlink:href="#DejaVuSans-20" transform="translate(388.720703 0)"/>
     <use xlink:href="#DejaVuSans-5b" transform="translate(420.507812 0)"/>
     <use xlink:href="#DejaVuSans-30" transform="translate(459.521484 0)"/>
     <use xlink:href="#DejaVuSans-2c" transform="translate(523.144531 0)"/>
     <use xlink:href="#DejaVuSans-20" transform="translate(554.931641 0)"/>
     <use xlink:href="#DejaVuSans-31" transform="translate(586.71875 0)"/>
     <use xlink:href="#DejaVuSans-2c" transform="translate(650.341797 0)"/>
     <use xlink:href="#DejaVuSans-20" transform="translate(682.128906 0)"/>
     <use xlink:href="#DejaVuSans-31" transform="translate(713.916016 0)"/>
     <use xlink:href="#DejaVuSans-5d" transform="translate(777.539062 0)"/>
    </g>
   </g>
   <g id="patch_10">
    <path d="M 184.465455 198.763655 
Q 192.676858 185.166278 201.466224 170.611844 
" style="fill: none; stroke: #000000; stroke-linecap: round"/>
    <path d="M 186.406679 197.536116 
L 184.465455 198.763655 
L 184.648159 196.474153 
" style="fill: none; stroke: #000000; stroke-linecap: round"/>
   </g>
   <g id="text_5">
    <g id="patch_11">
     <path d="M 151.577765 228.265914 
L 197.622235 228.265914 
L 197.622235 201.934086 
L 151.577765 201.934086 
z
" style="fill: #8139e5; stroke: #000000; stroke-linejoin: miter"/>
    </g>
    <!-- node #12 -->
    <g transform="translate(161.955606 207.890761) scale(0.051358 -0.051358)">
     <use xlink:href="#DejaVuSans-6e"/>
     <use xlink:href="#DejaVuSans-6f" transform="translate(63.378906 0)"/>
     <use xlink:href="#DejaVuSans-64" transform="translate(124.560547 0)"/>
     <use xlink:href="#DejaVuSans-65" transform="translate(188.037109 0)"/>
     <use xlink:href="#DejaVuSans-20" transform="translate(249.560547 0)"/>
     <use xlink:href="#DejaVuSans-23" transform="translate(281.347656 0)"/>
     <use xlink:href="#DejaVuSans-31" transform="translate(365.136719 0)"/>
     <use xlink:href="#DejaVuSans-32" transform="translate(428.759766 0)"/>
    </g>
    <!-- gini = 0.0 -->
    <g transform="translate(162.047889 213.641686) scale(0.051358 -0.051358)">
     <use xlink:href="#DejaVuSans-67"/>
     <use xlink:href="#DejaVuSans-69" transform="translate(63.476562 0)"/>
     <use xlink:href="#DejaVuSans-6e" transform="translate(91.259766 0)"/>
     <use xlink:href="#DejaVuSans-69" transform="translate(154.638672 0)"/>
     <use xlink:href="#DejaVuSans-20" transform="translate(182.421875 0)"/>
     <use xlink:href="#DejaVuSans-3d" transform="translate(214.208984 0)"/>
     <use xlink:href="#DejaVuSans-20" transform="translate(297.998047 0)"/>
     <use xlink:href="#DejaVuSans-30" transform="translate(329.785156 0)"/>
     <use xlink:href="#DejaVuSans-2e" transform="translate(393.408203 0)"/>
     <use xlink:href="#DejaVuSans-30" transform="translate(425.195312 0)"/>
    </g>
    <!-- samples = 3 -->
    <g transform="translate(158.508229 219.39261) scale(0.051358 -0.051358)">
     <use xlink:href="#DejaVuSans-73"/>
     <use xlink:href="#DejaVuSans-61" transform="translate(52.099609 0)"/>
     <use xlink:href="#DejaVuSans-6d" transform="translate(113.378906 0)"/>
     <use xlink:href="#DejaVuSans-70" transform="translate(210.791016 0)"/>
     <use xlink:href="#DejaVuSans-6c" transform="translate(274.267578 0)"/>
     <use xlink:href="#DejaVuSans-65" transform="translate(302.050781 0)"/>
     <use xlink:href="#DejaVuSans-73" transform="translate(363.574219 0)"/>
     <use xlink:href="#DejaVuSans-20" transform="translate(415.673828 0)"/>
     <use xlink:href="#DejaVuSans-3d" transform="translate(447.460938 0)"/>
     <use xlink:href="#DejaVuSans-20" transform="translate(531.25 0)"/>
     <use xlink:href="#DejaVuSans-33" transform="translate(563.037109 0)"/>
    </g>
    <!-- value = [0, 0, 3] -->
    <g transform="translate(153.632068 225.143535) scale(0.051358 -0.051358)">
     <use xlink:href="#DejaVuSans-76"/>
     <use xlink:href="#DejaVuSans-61" transform="translate(59.179688 0)"/>
     <use xlink:href="#DejaVuSans-6c" transform="translate(120.458984 0)"/>
     <use xlink:href="#DejaVuSans-75" transform="translate(148.242188 0)"/>
     <use xlink:href="#DejaVuSans-65" transform="translate(211.621094 0)"/>
     <use xlink:href="#DejaVuSans-20" transform="translate(273.144531 0)"/>
     <use xlink:href="#DejaVuSans-3d" transform="translate(304.931641 0)"/>
     <use xlink:href="#DejaVuSans-20" transform="translate(388.720703 0)"/>
     <use xlink:href="#DejaVuSans-5b" transform="translate(420.507812 0)"/>
     <use xlink:href="#DejaVuSans-30" transform="translate(459.521484 0)"/>
     <use xlink:href="#DejaVuSans-2c" transform="translate(523.144531 0)"/>
     <use xlink:href="#DejaVuSans-20" transform="translate(554.931641 0)"/>
     <use xlink:href="#DejaVuSans-30" transform="translate(586.71875 0)"/>
     <use xlink:href="#DejaVuSans-2c" transform="translate(650.341797 0)"/>
     <use xlink:href="#DejaVuSans-20" transform="translate(682.128906 0)"/>
     <use xlink:href="#DejaVuSans-33" transform="translate(713.916016 0)"/>
     <use xlink:href="#DejaVuSans-5d" transform="translate(777.539062 0)"/>
    </g>
   </g>
   <g id="patch_12">
    <path d="M 220.534545 198.763655 
Q 212.323142 185.166278 203.533776 170.611844 
" style="fill: none; stroke: #000000; stroke-linecap: round"/>
    <path d="M 220.351841 196.474153 
L 220.534545 198.763655 
L 218.593321 197.536116 
" style="fill: none; stroke: #000000; stroke-linecap: round"/>
   </g>
   <g id="text_6">
    <g id="patch_13">
     <path d="M 207.377765 228.265914 
L 253.422235 228.265914 
L 253.422235 201.934086 
L 207.377765 201.934086 
z
" style="fill: #39e581; stroke: #000000; stroke-linejoin: miter"/>
    </g>
    <!-- node #13 -->
    <g transform="translate(217.755606 207.890761) scale(0.051358 -0.051358)">
     <use xlink:href="#DejaVuSans-6e"/>
     <use xlink:href="#DejaVuSans-6f" transform="translate(63.378906 0)"/>
     <use xlink:href="#DejaVuSans-64" transform="translate(124.560547 0)"/>
     <use xlink:href="#DejaVuSans-65" transform="translate(188.037109 0)"/>
     <use xlink:href="#DejaVuSans-20" transform="translate(249.560547 0)"/>
     <use xlink:href="#DejaVuSans-23" transform="translate(281.347656 0)"/>
     <use xlink:href="#DejaVuSans-31" transform="translate(365.136719 0)"/>
     <use xlink:href="#DejaVuSans-33" transform="translate(428.759766 0)"/>
    </g>
    <!-- gini = 0.0 -->
    <g transform="translate(217.847889 213.641686) scale(0.051358 -0.051358)">
     <use xlink:href="#DejaVuSans-67"/>
     <use xlink:href="#DejaVuSans-69" transform="translate(63.476562 0)"/>
     <use xlink:href="#DejaVuSans-6e" transform="translate(91.259766 0)"/>
     <use xlink:href="#DejaVuSans-69" transform="translate(154.638672 0)"/>
     <use xlink:href="#DejaVuSans-20" transform="translate(182.421875 0)"/>
     <use xlink:href="#DejaVuSans-3d" transform="translate(214.208984 0)"/>
     <use xlink:href="#DejaVuSans-20" transform="translate(297.998047 0)"/>
     <use xlink:href="#DejaVuSans-30" transform="translate(329.785156 0)"/>
     <use xlink:href="#DejaVuSans-2e" transform="translate(393.408203 0)"/>
     <use xlink:href="#DejaVuSans-30" transform="translate(425.195312 0)"/>
    </g>
    <!-- samples = 1 -->
    <g transform="translate(214.308229 219.39261) scale(0.051358 -0.051358)">
     <use xlink:href="#DejaVuSans-73"/>
     <use xlink:href="#DejaVuSans-61" transform="translate(52.099609 0)"/>
     <use xlink:href="#DejaVuSans-6d" transform="translate(113.378906 0)"/>
     <use xlink:href="#DejaVuSans-70" transform="translate(210.791016 0)"/>
     <use xlink:href="#DejaVuSans-6c" transform="translate(274.267578 0)"/>
     <use xlink:href="#DejaVuSans-65" transform="translate(302.050781 0)"/>
     <use xlink:href="#DejaVuSans-73" transform="translate(363.574219 0)"/>
     <use xlink:href="#DejaVuSans-20" transform="translate(415.673828 0)"/>
     <use xlink:href="#DejaVuSans-3d" transform="translate(447.460938 0)"/>
     <use xlink:href="#DejaVuSans-20" transform="translate(531.25 0)"/>
     <use xlink:href="#DejaVuSans-31" transform="translate(563.037109 0)"/>
    </g>
    <!-- value = [0, 1, 0] -->
    <g transform="translate(209.432068 225.143535) scale(0.051358 -0.051358)">
     <use xlink:href="#DejaVuSans-76"/>
     <use xlink:href="#DejaVuSans-61" transform="translate(59.179688 0)"/>
     <use xlink:href="#DejaVuSans-6c" transform="translate(120.458984 0)"/>
     <use xlink:href="#DejaVuSans-75" transform="translate(148.242188 0)"/>
     <use xlink:href="#DejaVuSans-65" transform="translate(211.621094 0)"/>
     <use xlink:href="#DejaVuSans-20" transform="translate(273.144531 0)"/>
     <use xlink:href="#DejaVuSans-3d" transform="translate(304.931641 0)"/>
     <use xlink:href="#DejaVuSans-20" transform="translate(388.720703 0)"/>
     <use xlink:href="#DejaVuSans-5b" transform="translate(420.507812 0)"/>
     <use xlink:href="#DejaVuSans-30" transform="translate(459.521484 0)"/>
     <use xlink:href="#DejaVuSans-2c" transform="translate(523.144531 0)"/>
     <use xlink:href="#DejaVuSans-20" transform="translate(554.931641 0)"/>
     <use xlink:href="#DejaVuSans-31" transform="translate(586.71875 0)"/>
     <use xlink:href="#DejaVuSans-2c" transform="translate(650.341797 0)"/>
     <use xlink:href="#DejaVuSans-20" transform="translate(682.128906 0)"/>
     <use xlink:href="#DejaVuSans-30" transform="translate(713.916016 0)"/>
     <use xlink:href="#DejaVuSans-5d" transform="translate(777.539062 0)"/>
    </g>
   </g>
   <g id="patch_14">
    <path d="M 44.965455 152.563655 
Q 53.176858 138.966278 61.966224 124.411844 
" style="fill: none; stroke: #000000; stroke-linecap: round"/>
    <path d="M 46.906679 151.336116 
L 44.965455 152.563655 
L 45.148159 150.274153 
" style="fill: none; stroke: #000000; stroke-linecap: round"/>
   </g>
   <g id="text_7">
    <g id="patch_15">
     <path d="M 10.443953 182.065914 
L 59.756047 182.065914 
L 59.756047 155.734086 
L 10.443953 155.734086 
z
" style="fill: #39e581; stroke: #000000; stroke-linejoin: miter"/>
    </g>
    <!-- node #4 -->
    <g transform="translate(24.089418 161.690761) scale(0.051358 -0.051358)">
     <use xlink:href="#DejaVuSans-6e"/>
     <use xlink:href="#DejaVuSans-6f" transform="translate(63.378906 0)"/>
     <use xlink:href="#DejaVuSans-64" transform="translate(124.560547 0)"/>
     <use xlink:href="#DejaVuSans-65" transform="translate(188.037109 0)"/>
     <use xlink:href="#DejaVuSans-20" transform="translate(249.560547 0)"/>
     <use xlink:href="#DejaVuSans-23" transform="translate(281.347656 0)"/>
     <use xlink:href="#DejaVuSans-34" transform="translate(365.136719 0)"/>
    </g>
    <!-- gini = 0.0 -->
    <g transform="translate(22.547889 167.441686) scale(0.051358 -0.051358)">
     <use xlink:href="#DejaVuSans-67"/>
     <use xlink:href="#DejaVuSans-69" transform="translate(63.476562 0)"/>
     <use xlink:href="#DejaVuSans-6e" transform="translate(91.259766 0)"/>
     <use xlink:href="#DejaVuSans-69" transform="translate(154.638672 0)"/>
     <use xlink:href="#DejaVuSans-20" transform="translate(182.421875 0)"/>
     <use xlink:href="#DejaVuSans-3d" transform="translate(214.208984 0)"/>
     <use xlink:href="#DejaVuSans-20" transform="translate(297.998047 0)"/>
     <use xlink:href="#DejaVuSans-30" transform="translate(329.785156 0)"/>
     <use xlink:href="#DejaVuSans-2e" transform="translate(393.408203 0)"/>
     <use xlink:href="#DejaVuSans-30" transform="translate(425.195312 0)"/>
    </g>
    <!-- samples = 35 -->
    <g transform="translate(17.374416 173.19261) scale(0.051358 -0.051358)">
     <use xlink:href="#DejaVuSans-73"/>
     <use xlink:href="#DejaVuSans-61" transform="translate(52.099609 0)"/>
     <use xlink:href="#DejaVuSans-6d" transform="translate(113.378906 0)"/>
     <use xlink:href="#DejaVuSans-70" transform="translate(210.791016 0)"/>
     <use xlink:href="#DejaVuSans-6c" transform="translate(274.267578 0)"/>
     <use xlink:href="#DejaVuSans-65" transform="translate(302.050781 0)"/>
     <use xlink:href="#DejaVuSans-73" transform="translate(363.574219 0)"/>
     <use xlink:href="#DejaVuSans-20" transform="translate(415.673828 0)"/>
     <use xlink:href="#DejaVuSans-3d" transform="translate(447.460938 0)"/>
     <use xlink:href="#DejaVuSans-20" transform="translate(531.25 0)"/>
     <use xlink:href="#DejaVuSans-33" transform="translate(563.037109 0)"/>
     <use xlink:href="#DejaVuSans-35" transform="translate(626.660156 0)"/>
    </g>
    <!-- value = [0, 35, 0] -->
    <g transform="translate(12.498256 178.943535) scale(0.051358 -0.051358)">
     <use xlink:href="#DejaVuSans-76"/>
     <use xlink:href="#DejaVuSans-61" transform="translate(59.179688 0)"/>
     <use xlink:href="#DejaVuSans-6c" transform="translate(120.458984 0)"/>
     <use xlink:href="#DejaVuSans-75" transform="translate(148.242188 0)"/>
     <use xlink:href="#DejaVuSans-65" transform="translate(211.621094 0)"/>
     <use xlink:href="#DejaVuSans-20" transform="translate(273.144531 0)"/>
     <use xlink:href="#DejaVuSans-3d" transform="translate(304.931641 0)"/>
     <use xlink:href="#DejaVuSans-20" transform="translate(388.720703 0)"/>
     <use xlink:href="#DejaVuSans-5b" transform="translate(420.507812 0)"/>
     <use xlink:href="#DejaVuSans-30" transform="translate(459.521484 0)"/>
     <use xlink:href="#DejaVuSans-2c" transform="translate(523.144531 0)"/>
     <use xlink:href="#DejaVuSans-20" transform="translate(554.931641 0)"/>
     <use xlink:href="#DejaVuSans-33" transform="translate(586.71875 0)"/>
     <use xlink:href="#DejaVuSans-35" transform="translate(650.341797 0)"/>
     <use xlink:href="#DejaVuSans-2c" transform="translate(713.964844 0)"/>
     <use xlink:href="#DejaVuSans-20" transform="translate(745.751953 0)"/>
     <use xlink:href="#DejaVuSans-30" transform="translate(777.539062 0)"/>
     <use xlink:href="#DejaVuSans-5d" transform="translate(841.162109 0)"/>
    </g>
   </g>
   <g id="patch_16">
    <path d="M 79.297171 149.686713 
Q 71.953585 137.526367 64.032036 124.408964 
" style="fill: none; stroke: #000000; stroke-linecap: round"/>
    <path d="M 79.114468 147.397211 
L 79.297171 149.686713 
L 77.355947 148.459175 
" style="fill: none; stroke: #000000; stroke-linecap: round"/>
   </g>
   <g id="text_8">
    <g id="patch_17">
     <path d="M 67.877765 184.941377 
L 113.922235 184.941377 
L 113.922235 152.858623 
L 67.877765 152.858623 
z
" style="fill: #a06aec; stroke: #000000; stroke-linejoin: miter"/>
    </g>
    <!-- node #5 -->
    <g transform="translate(79.889418 158.815299) scale(0.051358 -0.051358)">
     <use xlink:href="#DejaVuSans-6e"/>
     <use xlink:href="#DejaVuSans-6f" transform="translate(63.378906 0)"/>
     <use xlink:href="#DejaVuSans-64" transform="translate(124.560547 0)"/>
     <use xlink:href="#DejaVuSans-65" transform="translate(188.037109 0)"/>
     <use xlink:href="#DejaVuSans-20" transform="translate(249.560547 0)"/>
     <use xlink:href="#DejaVuSans-23" transform="translate(281.347656 0)"/>
     <use xlink:href="#DejaVuSans-35" transform="translate(365.136719 0)"/>
    </g>
    <!-- x[3] &lt;= 1.55 -->
    <g transform="translate(74.089223 164.566224) scale(0.051358 -0.051358)">
     <use xlink:href="#DejaVuSans-78"/>
     <use xlink:href="#DejaVuSans-5b" transform="translate(59.179688 0)"/>
     <use xlink:href="#DejaVuSans-33" transform="translate(98.193359 0)"/>
     <use xlink:href="#DejaVuSans-5d" transform="translate(161.816406 0)"/>
     <use xlink:href="#DejaVuSans-20" transform="translate(200.830078 0)"/>
     <use xlink:href="#DejaVuSans-3c" transform="translate(232.617188 0)"/>
     <use xlink:href="#DejaVuSans-3d" transform="translate(316.40625 0)"/>
     <use xlink:href="#DejaVuSans-20" transform="translate(400.195312 0)"/>
     <use xlink:href="#DejaVuSans-31" transform="translate(431.982422 0)"/>
     <use xlink:href="#DejaVuSans-2e" transform="translate(495.605469 0)"/>
     <use xlink:href="#DejaVuSans-35" transform="translate(527.392578 0)"/>
     <use xlink:href="#DejaVuSans-35" transform="translate(591.015625 0)"/>
    </g>
    <!-- gini = 0.32 -->
    <g transform="translate(76.714076 170.317148) scale(0.051358 -0.051358)">
     <use xlink:href="#DejaVuSans-67"/>
     <use xlink:href="#DejaVuSans-69" transform="translate(63.476562 0)"/>
     <use xlink:href="#DejaVuSans-6e" transform="translate(91.259766 0)"/>
     <use xlink:href="#DejaVuSans-69" transform="translate(154.638672 0)"/>
     <use xlink:href="#DejaVuSans-20" transform="translate(182.421875 0)"/>
     <use xlink:href="#DejaVuSans-3d" transform="translate(214.208984 0)"/>
     <use xlink:href="#DejaVuSans-20" transform="translate(297.998047 0)"/>
     <use xlink:href="#DejaVuSans-30" transform="translate(329.785156 0)"/>
     <use xlink:href="#DejaVuSans-2e" transform="translate(393.408203 0)"/>
     <use xlink:href="#DejaVuSans-33" transform="translate(425.195312 0)"/>
     <use xlink:href="#DejaVuSans-32" transform="translate(488.818359 0)"/>
    </g>
    <!-- samples = 5 -->
    <g transform="translate(74.808229 176.068072) scale(0.051358 -0.051358)">
     <use xlink:href="#DejaVuSans-73"/>
     <use xlink:href="#DejaVuSans-61" transform="translate(52.099609 0)"/>
     <use xlink:href="#DejaVuSans-6d" transform="translate(113.378906 0)"/>
     <use xlink:href="#DejaVuSans-70" transform="translate(210.791016 0)"/>
     <use xlink:href="#DejaVuSans-6c" transform="translate(274.267578 0)"/>
     <use xlink:href="#DejaVuSans-65" transform="translate(302.050781 0)"/>
     <use xlink:href="#DejaVuSans-73" transform="translate(363.574219 0)"/>
     <use xlink:href="#DejaVuSans-20" transform="translate(415.673828 0)"/>
     <use xlink:href="#DejaVuSans-3d" transform="translate(447.460938 0)"/>
     <use xlink:href="#DejaVuSans-20" transform="translate(531.25 0)"/>
     <use xlink:href="#DejaVuSans-35" transform="translate(563.037109 0)"/>
    </g>
    <!-- value = [0, 1, 4] -->
    <g transform="translate(69.932068 181.818997) scale(0.051358 -0.051358)">
     <use xlink:href="#DejaVuSans-76"/>
     <use xlink:href="#DejaVuSans-61" transform="translate(59.179688 0)"/>
     <use xlink:href="#DejaVuSans-6c" transform="translate(120.458984 0)"/>
     <use xlink:href="#DejaVuSans-75" transform="translate(148.242188 0)"/>
     <use xlink:href="#DejaVuSans-65" transform="translate(211.621094 0)"/>
     <use xlink:href="#DejaVuSans-20" transform="translate(273.144531 0)"/>
     <use xlink:href="#DejaVuSans-3d" transform="translate(304.931641 0)"/>
     <use xlink:href="#DejaVuSans-20" transform="translate(388.720703 0)"/>
     <use xlink:href="#DejaVuSans-5b" transform="translate(420.507812 0)"/>
     <use xlink:href="#DejaVuSans-30" transform="translate(459.521484 0)"/>
     <use xlink:href="#DejaVuSans-2c" transform="translate(523.144531 0)"/>
     <use xlink:href="#DejaVuSans-20" transform="translate(554.931641 0)"/>
     <use xlink:href="#DejaVuSans-31" transform="translate(586.71875 0)"/>
     <use xlink:href="#DejaVuSans-2c" transform="translate(650.341797 0)"/>
     <use xlink:href="#DejaVuSans-20" transform="translate(682.128906 0)"/>
     <use xlink:href="#DejaVuSans-34" transform="translate(713.916016 0)"/>
     <use xlink:href="#DejaVuSans-5d" transform="translate(777.539062 0)"/>
    </g>
   </g>
   <g id="patch_18">
    <path d="M 214.102829 149.686713 
Q 221.446415 137.526367 229.367964 124.408964 
" style="fill: none; stroke: #000000; stroke-linecap: round"/>
    <path d="M 216.044053 148.459175 
L 214.102829 149.686713 
L 214.285532 147.397211 
" style="fill: none; stroke: #000000; stroke-linecap: round"/>
   </g>
   <g id="text_9">
    <g id="patch_19">
     <path d="M 179.477765 184.941377 
L 225.522235 184.941377 
L 225.522235 152.858623 
L 179.477765 152.858623 
z
" style="fill: #ab7bee; stroke: #000000; stroke-linejoin: miter"/>
    </g>
    <!-- node #11 -->
    <g transform="translate(189.855606 158.815299) scale(0.051358 -0.051358)">
     <use xlink:href="#DejaVuSans-6e"/>
     <use xlink:href="#DejaVuSans-6f" transform="translate(63.378906 0)"/>
     <use xlink:href="#DejaVuSans-64" transform="translate(124.560547 0)"/>
     <use xlink:href="#DejaVuSans-65" transform="translate(188.037109 0)"/>
     <use xlink:href="#DejaVuSans-20" transform="translate(249.560547 0)"/>
     <use xlink:href="#DejaVuSans-23" transform="translate(281.347656 0)"/>
     <use xlink:href="#DejaVuSans-31" transform="translate(365.136719 0)"/>
     <use xlink:href="#DejaVuSans-31" transform="translate(428.759766 0)"/>
    </g>
    <!-- x[1] &lt;= 3.1 -->
    <g transform="translate(187.323036 164.566224) scale(0.051358 -0.051358)">
     <use xlink:href="#DejaVuSans-78"/>
     <use xlink:href="#DejaVuSans-5b" transform="translate(59.179688 0)"/>
     <use xlink:href="#DejaVuSans-31" transform="translate(98.193359 0)"/>
     <use xlink:href="#DejaVuSans-5d" transform="translate(161.816406 0)"/>
     <use xlink:href="#DejaVuSans-20" transform="translate(200.830078 0)"/>
     <use xlink:href="#DejaVuSans-3c" transform="translate(232.617188 0)"/>
     <use xlink:href="#DejaVuSans-3d" transform="translate(316.40625 0)"/>
     <use xlink:href="#DejaVuSans-20" transform="translate(400.195312 0)"/>
     <use xlink:href="#DejaVuSans-33" transform="translate(431.982422 0)"/>
     <use xlink:href="#DejaVuSans-2e" transform="translate(495.605469 0)"/>
     <use xlink:href="#DejaVuSans-31" transform="translate(527.392578 0)"/>
    </g>
    <!-- gini = 0.375 -->
    <g transform="translate(186.680263 170.317148) scale(0.051358 -0.051358)">
     <use xlink:href="#DejaVuSans-67"/>
     <use xlink:href="#DejaVuSans-69" transform="translate(63.476562 0)"/>
     <use xlink:href="#DejaVuSans-6e" transform="translate(91.259766 0)"/>
     <use xlink:href="#DejaVuSans-69" transform="translate(154.638672 0)"/>
     <use xlink:href="#DejaVuSans-20" transform="translate(182.421875 0)"/>
     <use xlink:href="#DejaVuSans-3d" transform="translate(214.208984 0)"/>
     <use xlink:href="#DejaVuSans-20" transform="translate(297.998047 0)"/>
     <use xlink:href="#DejaVuSans-30" transform="translate(329.785156 0)"/>
     <use xlink:href="#DejaVuSans-2e" transform="translate(393.408203 0)"/>
     <use xlink:href="#DejaVuSans-33" transform="translate(425.195312 0)"/>
     <use xlink:href="#DejaVuSans-37" transform="translate(488.818359 0)"/>
     <use xlink:href="#DejaVuSans-35" transform="translate(552.441406 0)"/>
    </g>
    <!-- samples = 4 -->
    <g transform="translate(186.408229 176.068072) scale(0.051358 -0.051358)">
     <use xlink:href="#DejaVuSans-73"/>
     <use xlink:href="#DejaVuSans-61" transform="translate(52.099609 0)"/>
     <use xlink:href="#DejaVuSans-6d" transform="translate(113.378906 0)"/>
     <use xlink:href="#DejaVuSans-70" transform="translate(210.791016 0)"/>
     <use xlink:href="#DejaVuSans-6c" transform="translate(274.267578 0)"/>
     <use xlink:href="#DejaVuSans-65" transform="translate(302.050781 0)"/>
     <use xlink:href="#DejaVuSans-73" transform="translate(363.574219 0)"/>
     <use xlink:href="#DejaVuSans-20" transform="translate(415.673828 0)"/>
     <use xlink:href="#DejaVuSans-3d" transform="translate(447.460938 0)"/>
     <use xlink:href="#DejaVuSans-20" transform="translate(531.25 0)"/>
     <use xlink:href="#DejaVuSans-34" transform="translate(563.037109 0)"/>
    </g>
    <!-- value = [0, 1, 3] -->
    <g transform="translate(181.532068 181.818997) scale(0.051358 -0.051358)">
     <use xlink:href="#DejaVuSans-76"/>
     <use xlink:href="#DejaVuSans-61" transform="translate(59.179688 0)"/>
     <use xlink:href="#DejaVuSans-6c" transform="translate(120.458984 0)"/>
     <use xlink:href="#DejaVuSans-75" transform="translate(148.242188 0)"/>
     <use xlink:href="#DejaVuSans-65" transform="translate(211.621094 0)"/>
     <use xlink:href="#DejaVuSans-20" transform="translate(273.144531 0)"/>
     <use xlink:href="#DejaVuSans-3d" transform="translate(304.931641 0)"/>
     <use xlink:href="#DejaVuSans-20" transform="translate(388.720703 0)"/>
     <use xlink:href="#DejaVuSans-5b" transform="translate(420.507812 0)"/>
     <use xlink:href="#DejaVuSans-30" transform="translate(459.521484 0)"/>
     <use xlink:href="#DejaVuSans-2c" transform="translate(523.144531 0)"/>
     <use xlink:href="#DejaVuSans-20" transform="translate(554.931641 0)"/>
     <use xlink:href="#DejaVuSans-31" transform="translate(586.71875 0)"/>
     <use xlink:href="#DejaVuSans-2c" transform="translate(650.341797 0)"/>
     <use xlink:href="#DejaVuSans-20" transform="translate(682.128906 0)"/>
     <use xlink:href="#DejaVuSans-33" transform="translate(713.916016 0)"/>
     <use xlink:href="#DejaVuSans-5d" transform="translate(777.539062 0)"/>
    </g>
   </g>
   <g id="patch_20">
    <path d="M 248.434545 152.563655 
Q 240.223142 138.966278 231.433776 124.411844 
" style="fill: none; stroke: #000000; stroke-linecap: round"/>
    <path d="M 248.251841 150.274153 
L 248.434545 152.563655 
L 246.493321 151.336116 
" style="fill: none; stroke: #000000; stroke-linecap: round"/>
   </g>
   <g id="text_10">
    <g id="patch_21">
     <path d="M 233.643953 182.065914 
L 282.956047 182.065914 
L 282.956047 155.734086 
L 233.643953 155.734086 
z
" style="fill: #8139e5; stroke: #000000; stroke-linejoin: miter"/>
    </g>
    <!-- node #14 -->
    <g transform="translate(245.655606 161.690761) scale(0.051358 -0.051358)">
     <use xlink:href="#DejaVuSans-6e"/>
     <use xlink:href="#DejaVuSans-6f" transform="translate(63.378906 0)"/>
     <use xlink:href="#DejaVuSans-64" transform="translate(124.560547 0)"/>
     <use xlink:href="#DejaVuSans-65" transform="translate(188.037109 0)"/>
     <use xlink:href="#DejaVuSans-20" transform="translate(249.560547 0)"/>
     <use xlink:href="#DejaVuSans-23" transform="translate(281.347656 0)"/>
     <use xlink:href="#DejaVuSans-31" transform="translate(365.136719 0)"/>
     <use xlink:href="#DejaVuSans-34" transform="translate(428.759766 0)"/>
    </g>
    <!-- gini = 0.0 -->
    <g transform="translate(245.747889 167.441686) scale(0.051358 -0.051358)">
     <use xlink:href="#DejaVuSans-67"/>
     <use xlink:href="#DejaVuSans-69" transform="translate(63.476562 0)"/>
     <use xlink:href="#DejaVuSans-6e" transform="translate(91.259766 0)"/>
     <use xlink:href="#DejaVuSans-69" transform="translate(154.638672 0)"/>
     <use xlink:href="#DejaVuSans-20" transform="translate(182.421875 0)"/>
     <use xlink:href="#DejaVuSans-3d" transform="translate(214.208984 0)"/>
     <use xlink:href="#DejaVuSans-20" transform="translate(297.998047 0)"/>
     <use xlink:href="#DejaVuSans-30" transform="translate(329.785156 0)"/>
     <use xlink:href="#DejaVuSans-2e" transform="translate(393.408203 0)"/>
     <use xlink:href="#DejaVuSans-30" transform="translate(425.195312 0)"/>
    </g>
    <!-- samples = 37 -->
    <g transform="translate(240.574416 173.19261) scale(0.051358 -0.051358)">
     <use xlink:href="#DejaVuSans-73"/>
     <use xlink:href="#DejaVuSans-61" transform="translate(52.099609 0)"/>
     <use xlink:href="#DejaVuSans-6d" transform="translate(113.378906 0)"/>
     <use xlink:href="#DejaVuSans-70" transform="translate(210.791016 0)"/>
     <use xlink:href="#DejaVuSans-6c" transform="translate(274.267578 0)"/>
     <use xlink:href="#DejaVuSans-65" transform="translate(302.050781 0)"/>
     <use xlink:href="#DejaVuSans-73" transform="translate(363.574219 0)"/>
     <use xlink:href="#DejaVuSans-20" transform="translate(415.673828 0)"/>
     <use xlink:href="#DejaVuSans-3d" transform="translate(447.460938 0)"/>
     <use xlink:href="#DejaVuSans-20" transform="translate(531.25 0)"/>
     <use xlink:href="#DejaVuSans-33" transform="translate(563.037109 0)"/>
     <use xlink:href="#DejaVuSans-37" transform="translate(626.660156 0)"/>
    </g>
    <!-- value = [0, 0, 37] -->
    <g transform="translate(235.698256 178.943535) scale(0.051358 -0.051358)">
     <use xlink:href="#DejaVuSans-76"/>
     <use xlink:href="#DejaVuSans-61" transform="translate(59.179688 0)"/>
     <use xlink:href="#DejaVuSans-6c" transform="translate(120.458984 0)"/>
     <use xlink:href="#DejaVuSans-75" transform="translate(148.242188 0)"/>
     <use xlink:href="#DejaVuSans-65" transform="translate(211.621094 0)"/>
     <use xlink:href="#DejaVuSans-20" transform="translate(273.144531 0)"/>
     <use xlink:href="#DejaVuSans-3d" transform="translate(304.931641 0)"/>
     <use xlink:href="#DejaVuSans-20" transform="translate(388.720703 0)"/>
     <use xlink:href="#DejaVuSans-5b" transform="translate(420.507812 0)"/>
     <use xlink:href="#DejaVuSans-30" transform="translate(459.521484 0)"/>
     <use xlink:href="#DejaVuSans-2c" transform="translate(523.144531 0)"/>
     <use xlink:href="#DejaVuSans-20" transform="translate(554.931641 0)"/>
     <use xlink:href="#DejaVuSans-30" transform="translate(586.71875 0)"/>
     <use xlink:href="#DejaVuSans-2c" transform="translate(650.341797 0)"/>
     <use xlink:href="#DejaVuSans-20" transform="translate(682.128906 0)"/>
     <use xlink:href="#DejaVuSans-33" transform="translate(713.916016 0)"/>
     <use xlink:href="#DejaVuSans-37" transform="translate(777.539062 0)"/>
     <use xlink:href="#DejaVuSans-5d" transform="translate(841.162109 0)"/>
    </g>
   </g>
   <g id="patch_22">
    <path d="M 90.89075 107.305106 
Q 117.430781 92.65577 144.949635 77.466151 
" style="fill: none; stroke: #000000; stroke-linecap: round"/>
    <path d="M 93.185628 107.211634 
L 90.89075 107.305106 
L 92.1929 105.413121 
" style="fill: none; stroke: #000000; stroke-linecap: round"/>
   </g>
   <g id="text_11">
    <g id="patch_23">
     <path d="M 38.343953 138.741377 
L 87.656047 138.741377 
L 87.656047 106.658623 
L 38.343953 106.658623 
z
" style="fill: #4fe88f; stroke: #000000; stroke-linejoin: miter"/>
    </g>
    <!-- node #3 -->
    <g transform="translate(51.989418 112.615299) scale(0.051358 -0.051358)">
     <use xlink:href="#DejaVuSans-6e"/>
     <use xlink:href="#DejaVuSans-6f" transform="translate(63.378906 0)"/>
     <use xlink:href="#DejaVuSans-64" transform="translate(124.560547 0)"/>
     <use xlink:href="#DejaVuSans-65" transform="translate(188.037109 0)"/>
     <use xlink:href="#DejaVuSans-20" transform="translate(249.560547 0)"/>
     <use xlink:href="#DejaVuSans-23" transform="translate(281.347656 0)"/>
     <use xlink:href="#DejaVuSans-33" transform="translate(365.136719 0)"/>
    </g>
    <!-- x[2] &lt;= 4.95 -->
    <g transform="translate(46.189223 118.366224) scale(0.051358 -0.051358)">
     <use xlink:href="#DejaVuSans-78"/>
     <use xlink:href="#DejaVuSans-5b" transform="translate(59.179688 0)"/>
     <use xlink:href="#DejaVuSans-32" transform="translate(98.193359 0)"/>
     <use xlink:href="#DejaVuSans-5d" transform="translate(161.816406 0)"/>
     <use xlink:href="#DejaVuSans-20" transform="translate(200.830078 0)"/>
     <use xlink:href="#DejaVuSans-3c" transform="translate(232.617188 0)"/>
     <use xlink:href="#DejaVuSans-3d" transform="translate(316.40625 0)"/>
     <use xlink:href="#DejaVuSans-20" transform="translate(400.195312 0)"/>
     <use xlink:href="#DejaVuSans-34" transform="translate(431.982422 0)"/>
     <use xlink:href="#DejaVuSans-2e" transform="translate(495.605469 0)"/>
     <use xlink:href="#DejaVuSans-39" transform="translate(527.392578 0)"/>
     <use xlink:href="#DejaVuSans-35" transform="translate(591.015625 0)"/>
    </g>
    <!-- gini = 0.18 -->
    <g transform="translate(48.814076 124.117148) scale(0.051358 -0.051358)">
     <use xlink:href="#DejaVuSans-67"/>
     <use xlink:href="#DejaVuSans-69" transform="translate(63.476562 0)"/>
     <use xlink:href="#DejaVuSans-6e" transform="translate(91.259766 0)"/>
     <use xlink:href="#DejaVuSans-69" transform="translate(154.638672 0)"/>
     <use xlink:href="#DejaVuSans-20" transform="translate(182.421875 0)"/>
     <use xlink:href="#DejaVuSans-3d" transform="translate(214.208984 0)"/>
     <use xlink:href="#DejaVuSans-20" transform="translate(297.998047 0)"/>
     <use xlink:href="#DejaVuSans-30" transform="translate(329.785156 0)"/>
     <use xlink:href="#DejaVuSans-2e" transform="translate(393.408203 0)"/>
     <use xlink:href="#DejaVuSans-31" transform="translate(425.195312 0)"/>
     <use xlink:href="#DejaVuSans-38" transform="translate(488.818359 0)"/>
    </g>
    <!-- samples = 40 -->
    <g transform="translate(45.274416 129.868072) scale(0.051358 -0.051358)">
     <use xlink:href="#DejaVuSans-73"/>
     <use xlink:href="#DejaVuSans-61" transform="translate(52.099609 0)"/>
     <use xlink:href="#DejaVuSans-6d" transform="translate(113.378906 0)"/>
     <use xlink:href="#DejaVuSans-70" transform="translate(210.791016 0)"/>
     <use xlink:href="#DejaVuSans-6c" transform="translate(274.267578 0)"/>
     <use xlink:href="#DejaVuSans-65" transform="translate(302.050781 0)"/>
     <use xlink:href="#DejaVuSans-73" transform="translate(363.574219 0)"/>
     <use xlink:href="#DejaVuSans-20" transform="translate(415.673828 0)"/>
     <use xlink:href="#DejaVuSans-3d" transform="translate(447.460938 0)"/>
     <use xlink:href="#DejaVuSans-20" transform="translate(531.25 0)"/>
     <use xlink:href="#DejaVuSans-34" transform="translate(563.037109 0)"/>
     <use xlink:href="#DejaVuSans-30" transform="translate(626.660156 0)"/>
    </g>
    <!-- value = [0, 36, 4] -->
    <g transform="translate(40.398256 135.618997) scale(0.051358 -0.051358)">
     <use xlink:href="#DejaVuSans-76"/>
     <use xlink:href="#DejaVuSans-61" transform="translate(59.179688 0)"/>
     <use xlink:href="#DejaVuSans-6c" transform="translate(120.458984 0)"/>
     <use xlink:href="#DejaVuSans-75" transform="translate(148.242188 0)"/>
     <use xlink:href="#DejaVuSans-65" transform="translate(211.621094 0)"/>
     <use xlink:href="#DejaVuSans-20" transform="translate(273.144531 0)"/>
     <use xlink:href="#DejaVuSans-3d" transform="translate(304.931641 0)"/>
     <use xlink:href="#DejaVuSans-20" transform="translate(388.720703 0)"/>
     <use xlink:href="#DejaVuSans-5b" transform="translate(420.507812 0)"/>
     <use xlink:href="#DejaVuSans-30" transform="translate(459.521484 0)"/>
     <use xlink:href="#DejaVuSans-2c" transform="translate(523.144531 0)"/>
     <use xlink:href="#DejaVuSans-20" transform="translate(554.931641 0)"/>
     <use xlink:href="#DejaVuSans-33" transform="translate(586.71875 0)"/>
     <use xlink:href="#DejaVuSans-36" transform="translate(650.341797 0)"/>
     <use xlink:href="#DejaVuSans-2c" transform="translate(713.964844 0)"/>
     <use xlink:href="#DejaVuSans-20" transform="translate(745.751953 0)"/>
     <use xlink:href="#DejaVuSans-34" transform="translate(777.539062 0)"/>
     <use xlink:href="#DejaVuSans-5d" transform="translate(841.162109 0)"/>
    </g>
   </g>
   <g id="patch_24">
    <path d="M 202.50925 107.305106 
Q 175.969219 92.65577 148.450365 77.466151 
" style="fill: none; stroke: #000000; stroke-linecap: round"/>
    <path d="M 201.2071 105.413121 
L 202.50925 107.305106 
L 200.214372 107.211634 
" style="fill: none; stroke: #000000; stroke-linecap: round"/>
   </g>
   <g id="text_12">
    <g id="patch_25">
     <path d="M 205.743953 138.741377 
L 255.056047 138.741377 
L 255.056047 106.658623 
L 205.743953 106.658623 
z
" style="fill: #843ee6; stroke: #000000; stroke-linejoin: miter"/>
    </g>
    <!-- node #10 -->
    <g transform="translate(217.755606 112.615299) scale(0.051358 -0.051358)">
     <use xlink:href="#DejaVuSans-6e"/>
     <use xlink:href="#DejaVuSans-6f" transform="translate(63.378906 0)"/>
     <use xlink:href="#DejaVuSans-64" transform="translate(124.560547 0)"/>
     <use xlink:href="#DejaVuSans-65" transform="translate(188.037109 0)"/>
     <use xlink:href="#DejaVuSans-20" transform="translate(249.560547 0)"/>
     <use xlink:href="#DejaVuSans-23" transform="translate(281.347656 0)"/>
     <use xlink:href="#DejaVuSans-31" transform="translate(365.136719 0)"/>
     <use xlink:href="#DejaVuSans-30" transform="translate(428.759766 0)"/>
    </g>
    <!-- x[2] &lt;= 4.85 -->
    <g transform="translate(213.589223 118.366224) scale(0.051358 -0.051358)">
     <use xlink:href="#DejaVuSans-78"/>
     <use xlink:href="#DejaVuSans-5b" transform="translate(59.179688 0)"/>
     <use xlink:href="#DejaVuSans-32" transform="translate(98.193359 0)"/>
     <use xlink:href="#DejaVuSans-5d" transform="translate(161.816406 0)"/>
     <use xlink:href="#DejaVuSans-20" transform="translate(200.830078 0)"/>
     <use xlink:href="#DejaVuSans-3c" transform="translate(232.617188 0)"/>
     <use xlink:href="#DejaVuSans-3d" transform="translate(316.40625 0)"/>
     <use xlink:href="#DejaVuSans-20" transform="translate(400.195312 0)"/>
     <use xlink:href="#DejaVuSans-34" transform="translate(431.982422 0)"/>
     <use xlink:href="#DejaVuSans-2e" transform="translate(495.605469 0)"/>
     <use xlink:href="#DejaVuSans-38" transform="translate(527.392578 0)"/>
     <use xlink:href="#DejaVuSans-35" transform="translate(591.015625 0)"/>
    </g>
    <!-- gini = 0.048 -->
    <g transform="translate(214.580263 124.117148) scale(0.051358 -0.051358)">
     <use xlink:href="#DejaVuSans-67"/>
     <use xlink:href="#DejaVuSans-69" transform="translate(63.476562 0)"/>
     <use xlink:href="#DejaVuSans-6e" transform="translate(91.259766 0)"/>
     <use xlink:href="#DejaVuSans-69" transform="translate(154.638672 0)"/>
     <use xlink:href="#DejaVuSans-20" transform="translate(182.421875 0)"/>
     <use xlink:href="#DejaVuSans-3d" transform="translate(214.208984 0)"/>
     <use xlink:href="#DejaVuSans-20" transform="translate(297.998047 0)"/>
     <use xlink:href="#DejaVuSans-30" transform="translate(329.785156 0)"/>
     <use xlink:href="#DejaVuSans-2e" transform="translate(393.408203 0)"/>
     <use xlink:href="#DejaVuSans-30" transform="translate(425.195312 0)"/>
     <use xlink:href="#DejaVuSans-34" transform="translate(488.818359 0)"/>
     <use xlink:href="#DejaVuSans-38" transform="translate(552.441406 0)"/>
    </g>
    <!-- samples = 41 -->
    <g transform="translate(212.674416 129.868072) scale(0.051358 -0.051358)">
     <use xlink:href="#DejaVuSans-73"/>
     <use xlink:href="#DejaVuSans-61" transform="translate(52.099609 0)"/>
     <use xlink:href="#DejaVuSans-6d" transform="translate(113.378906 0)"/>
     <use xlink:href="#DejaVuSans-70" transform="translate(210.791016 0)"/>
     <use xlink:href="#DejaVuSans-6c" transform="translate(274.267578 0)"/>
     <use xlink:href="#DejaVuSans-65" transform="translate(302.050781 0)"/>
     <use xlink:href="#DejaVuSans-73" transform="translate(363.574219 0)"/>
     <use xlink:href="#DejaVuSans-20" transform="translate(415.673828 0)"/>
     <use xlink:href="#DejaVuSans-3d" transform="translate(447.460938 0)"/>
     <use xlink:href="#DejaVuSans-20" transform="translate(531.25 0)"/>
     <use xlink:href="#DejaVuSans-34" transform="translate(563.037109 0)"/>
     <use xlink:href="#DejaVuSans-31" transform="translate(626.660156 0)"/>
    </g>
    <!-- value = [0, 1, 40] -->
    <g transform="translate(207.798256 135.618997) scale(0.051358 -0.051358)">
     <use xlink:href="#DejaVuSans-76"/>
     <use xlink:href="#DejaVuSans-61" transform="translate(59.179688 0)"/>
     <use xlink:href="#DejaVuSans-6c" transform="translate(120.458984 0)"/>
     <use xlink:href="#DejaVuSans-75" transform="translate(148.242188 0)"/>
     <use xlink:href="#DejaVuSans-65" transform="translate(211.621094 0)"/>
     <use xlink:href="#DejaVuSans-20" transform="translate(273.144531 0)"/>
     <use xlink:href="#DejaVuSans-3d" transform="translate(304.931641 0)"/>
     <use xlink:href="#DejaVuSans-20" transform="translate(388.720703 0)"/>
     <use xlink:href="#DejaVuSans-5b" transform="translate(420.507812 0)"/>
     <use xlink:href="#DejaVuSans-30" transform="translate(459.521484 0)"/>
     <use xlink:href="#DejaVuSans-2c" transform="translate(523.144531 0)"/>
     <use xlink:href="#DejaVuSans-20" transform="translate(554.931641 0)"/>
     <use xlink:href="#DejaVuSans-31" transform="translate(586.71875 0)"/>
     <use xlink:href="#DejaVuSans-2c" transform="translate(650.341797 0)"/>
     <use xlink:href="#DejaVuSans-20" transform="translate(682.128906 0)"/>
     <use xlink:href="#DejaVuSans-34" transform="translate(713.916016 0)"/>
     <use xlink:href="#DejaVuSans-30" transform="translate(777.539062 0)"/>
     <use xlink:href="#DejaVuSans-5d" transform="translate(841.162109 0)"/>
    </g>
   </g>
   <g id="patch_26">
    <path d="M 100.765455 60.163655 
Q 108.976858 46.566278 117.766224 32.011844 
" style="fill: none; stroke: #000000; stroke-linecap: round"/>
    <path d="M 102.706679 58.936116 
L 100.765455 60.163655 
L 100.948159 57.874153 
" style="fill: none; stroke: #000000; stroke-linecap: round"/>
   </g>
   <g id="text_13">
    <g id="patch_27">
     <path d="M 66.243953 89.665914 
L 115.556047 89.665914 
L 115.556047 63.334086 
L 66.243953 63.334086 
z
" style="fill: #e58139; stroke: #000000; stroke-linejoin: miter"/>
    </g>
    <!-- node #1 -->
    <g transform="translate(79.889418 69.290761) scale(0.051358 -0.051358)">
     <use xlink:href="#DejaVuSans-6e"/>
     <use xlink:href="#DejaVuSans-6f" transform="translate(63.378906 0)"/>
     <use xlink:href="#DejaVuSans-64" transform="translate(124.560547 0)"/>
     <use xlink:href="#DejaVuSans-65" transform="translate(188.037109 0)"/>
     <use xlink:href="#DejaVuSans-20" transform="translate(249.560547 0)"/>
     <use xlink:href="#DejaVuSans-23" transform="translate(281.347656 0)"/>
     <use xlink:href="#DejaVuSans-31" transform="translate(365.136719 0)"/>
    </g>
    <!-- gini = 0.0 -->
    <g transform="translate(78.347889 75.041686) scale(0.051358 -0.051358)">
     <use xlink:href="#DejaVuSans-67"/>
     <use xlink:href="#DejaVuSans-69" transform="translate(63.476562 0)"/>
     <use xlink:href="#DejaVuSans-6e" transform="translate(91.259766 0)"/>
     <use xlink:href="#DejaVuSans-69" transform="translate(154.638672 0)"/>
     <use xlink:href="#DejaVuSans-20" transform="translate(182.421875 0)"/>
     <use xlink:href="#DejaVuSans-3d" transform="translate(214.208984 0)"/>
     <use xlink:href="#DejaVuSans-20" transform="translate(297.998047 0)"/>
     <use xlink:href="#DejaVuSans-30" transform="translate(329.785156 0)"/>
     <use xlink:href="#DejaVuSans-2e" transform="translate(393.408203 0)"/>
     <use xlink:href="#DejaVuSans-30" transform="translate(425.195312 0)"/>
    </g>
    <!-- samples = 39 -->
    <g transform="translate(73.174416 80.79261) scale(0.051358 -0.051358)">
     <use xlink:href="#DejaVuSans-73"/>
     <use xlink:href="#DejaVuSans-61" transform="translate(52.099609 0)"/>
     <use xlink:href="#DejaVuSans-6d" transform="translate(113.378906 0)"/>
     <use xlink:href="#DejaVuSans-70" transform="translate(210.791016 0)"/>
     <use xlink:href="#DejaVuSans-6c" transform="translate(274.267578 0)"/>
     <use xlink:href="#DejaVuSans-65" transform="translate(302.050781 0)"/>
     <use xlink:href="#DejaVuSans-73" transform="translate(363.574219 0)"/>
     <use xlink:href="#DejaVuSans-20" transform="translate(415.673828 0)"/>
     <use xlink:href="#DejaVuSans-3d" transform="translate(447.460938 0)"/>
     <use xlink:href="#DejaVuSans-20" transform="translate(531.25 0)"/>
     <use xlink:href="#DejaVuSans-33" transform="translate(563.037109 0)"/>
     <use xlink:href="#DejaVuSans-39" transform="translate(626.660156 0)"/>
    </g>
    <!-- value = [39, 0, 0] -->
    <g transform="translate(68.298256 86.543535) scale(0.051358 -0.051358)">
     <use xlink:href="#DejaVuSans-76"/>
     <use xlink:href="#DejaVuSans-61" transform="translate(59.179688 0)"/>
     <use xlink:href="#DejaVuSans-6c" transform="translate(120.458984 0)"/>
     <use xlink:href="#DejaVuSans-75" transform="translate(148.242188 0)"/>
     <use xlink:href="#DejaVuSans-65" transform="translate(211.621094 0)"/>
     <use xlink:href="#DejaVuSans-20" transform="translate(273.144531 0)"/>
     <use xlink:href="#DejaVuSans-3d" transform="translate(304.931641 0)"/>
     <use xlink:href="#DejaVuSans-20" transform="translate(388.720703 0)"/>
     <use xlink:href="#DejaVuSans-5b" transform="translate(420.507812 0)"/>
     <use xlink:href="#DejaVuSans-33" transform="translate(459.521484 0)"/>
     <use xlink:href="#DejaVuSans-39" transform="translate(523.144531 0)"/>
     <use xlink:href="#DejaVuSans-2c" transform="translate(586.767578 0)"/>
     <use xlink:href="#DejaVuSans-20" transform="translate(618.554688 0)"/>
     <use xlink:href="#DejaVuSans-30" transform="translate(650.341797 0)"/>
     <use xlink:href="#DejaVuSans-2c" transform="translate(713.964844 0)"/>
     <use xlink:href="#DejaVuSans-20" transform="translate(745.751953 0)"/>
     <use xlink:href="#DejaVuSans-30" transform="translate(777.539062 0)"/>
     <use xlink:href="#DejaVuSans-5d" transform="translate(841.162109 0)"/>
    </g>
   </g>
   <g id="text_14">
    <!-- True   -->
    <g transform="translate(90.680125 53.4) scale(0.051358 -0.051358)">
     <defs>
      <path id="DejaVuSans-54" d="M -19 4666 
L 3928 4666 
L 3928 4134 
L 2272 4134 
L 2272 0 
L 1638 0 
L 1638 4134 
L -19 4134 
L -19 4666 
z
" transform="scale(0.015625)"/>
      <path id="DejaVuSans-72" d="M 2631 2963 
Q 2534 3019 2420 3045 
Q 2306 3072 2169 3072 
Q 1681 3072 1420 2755 
Q 1159 2438 1159 1844 
L 1159 0 
L 581 0 
L 581 3500 
L 1159 3500 
L 1159 2956 
Q 1341 3275 1631 3429 
Q 1922 3584 2338 3584 
Q 2397 3584 2469 3576 
Q 2541 3569 2628 3553 
L 2631 2963 
z
" transform="scale(0.015625)"/>
     </defs>
     <use xlink:href="#DejaVuSans-54"/>
     <use xlink:href="#DejaVuSans-72" transform="translate(46.333984 0)"/>
     <use xlink:href="#DejaVuSans-75" transform="translate(87.447266 0)"/>
     <use xlink:href="#DejaVuSans-65" transform="translate(150.826172 0)"/>
     <use xlink:href="#DejaVuSans-20" transform="translate(212.349609 0)"/>
     <use xlink:href="#DejaVuSans-20" transform="translate(244.136719 0)"/>
    </g>
   </g>
   <g id="patch_28">
    <path d="M 135.097171 57.286713 
Q 127.753585 45.126367 119.832036 32.008964 
" style="fill: none; stroke: #000000; stroke-linecap: round"/>
    <path d="M 134.914468 54.997211 
L 135.097171 57.286713 
L 133.155947 56.059175 
" style="fill: none; stroke: #000000; stroke-linecap: round"/>
   </g>
   <g id="text_15">
    <g id="patch_29">
     <path d="M 120.41014 92.541377 
L 172.98986 92.541377 
L 172.98986 60.458623 
L 120.41014 60.458623 
z
" style="fill: #ebe0fb; stroke: #000000; stroke-linejoin: miter"/>
    </g>
    <!-- node #2 -->
    <g transform="translate(135.689418 66.415299) scale(0.051358 -0.051358)">
     <use xlink:href="#DejaVuSans-6e"/>
     <use xlink:href="#DejaVuSans-6f" transform="translate(63.378906 0)"/>
     <use xlink:href="#DejaVuSans-64" transform="translate(124.560547 0)"/>
     <use xlink:href="#DejaVuSans-65" transform="translate(188.037109 0)"/>
     <use xlink:href="#DejaVuSans-20" transform="translate(249.560547 0)"/>
     <use xlink:href="#DejaVuSans-23" transform="translate(281.347656 0)"/>
     <use xlink:href="#DejaVuSans-32" transform="translate(365.136719 0)"/>
    </g>
    <!-- x[3] &lt;= 1.65 -->
    <g transform="translate(129.889223 72.166224) scale(0.051358 -0.051358)">
     <use xlink:href="#DejaVuSans-78"/>
     <use xlink:href="#DejaVuSans-5b" transform="translate(59.179688 0)"/>
     <use xlink:href="#DejaVuSans-33" transform="translate(98.193359 0)"/>
     <use xlink:href="#DejaVuSans-5d" transform="translate(161.816406 0)"/>
     <use xlink:href="#DejaVuSans-20" transform="translate(200.830078 0)"/>
     <use xlink:href="#DejaVuSans-3c" transform="translate(232.617188 0)"/>
     <use xlink:href="#DejaVuSans-3d" transform="translate(316.40625 0)"/>
     <use xlink:href="#DejaVuSans-20" transform="translate(400.195312 0)"/>
     <use xlink:href="#DejaVuSans-31" transform="translate(431.982422 0)"/>
     <use xlink:href="#DejaVuSans-2e" transform="translate(495.605469 0)"/>
     <use xlink:href="#DejaVuSans-36" transform="translate(527.392578 0)"/>
     <use xlink:href="#DejaVuSans-35" transform="translate(591.015625 0)"/>
    </g>
    <!-- gini = 0.496 -->
    <g transform="translate(130.880263 77.917148) scale(0.051358 -0.051358)">
     <use xlink:href="#DejaVuSans-67"/>
     <use xlink:href="#DejaVuSans-69" transform="translate(63.476562 0)"/>
     <use xlink:href="#DejaVuSans-6e" transform="translate(91.259766 0)"/>
     <use xlink:href="#DejaVuSans-69" transform="translate(154.638672 0)"/>
     <use xlink:href="#DejaVuSans-20" transform="translate(182.421875 0)"/>
     <use xlink:href="#DejaVuSans-3d" transform="translate(214.208984 0)"/>
     <use xlink:href="#DejaVuSans-20" transform="translate(297.998047 0)"/>
     <use xlink:href="#DejaVuSans-30" transform="translate(329.785156 0)"/>
     <use xlink:href="#DejaVuSans-2e" transform="translate(393.408203 0)"/>
     <use xlink:href="#DejaVuSans-34" transform="translate(425.195312 0)"/>
     <use xlink:href="#DejaVuSans-39" transform="translate(488.818359 0)"/>
     <use xlink:href="#DejaVuSans-36" transform="translate(552.441406 0)"/>
    </g>
    <!-- samples = 81 -->
    <g transform="translate(128.974416 83.668072) scale(0.051358 -0.051358)">
     <use xlink:href="#DejaVuSans-73"/>
     <use xlink:href="#DejaVuSans-61" transform="translate(52.099609 0)"/>
     <use xlink:href="#DejaVuSans-6d" transform="translate(113.378906 0)"/>
     <use xlink:href="#DejaVuSans-70" transform="translate(210.791016 0)"/>
     <use xlink:href="#DejaVuSans-6c" transform="translate(274.267578 0)"/>
     <use xlink:href="#DejaVuSans-65" transform="translate(302.050781 0)"/>
     <use xlink:href="#DejaVuSans-73" transform="translate(363.574219 0)"/>
     <use xlink:href="#DejaVuSans-20" transform="translate(415.673828 0)"/>
     <use xlink:href="#DejaVuSans-3d" transform="translate(447.460938 0)"/>
     <use xlink:href="#DejaVuSans-20" transform="translate(531.25 0)"/>
     <use xlink:href="#DejaVuSans-38" transform="translate(563.037109 0)"/>
     <use xlink:href="#DejaVuSans-31" transform="translate(626.660156 0)"/>
    </g>
    <!-- value = [0, 37, 44] -->
    <g transform="translate(122.464443 89.418997) scale(0.051358 -0.051358)">
     <use xlink:href="#DejaVuSans-76"/>
     <use xlink:href="#DejaVuSans-61" transform="translate(59.179688 0)"/>
     <use xlink:href="#DejaVuSans-6c" transform="translate(120.458984 0)"/>
     <use xlink:href="#DejaVuSans-75" transform="translate(148.242188 0)"/>
     <use xlink:href="#DejaVuSans-65" transform="translate(211.621094 0)"/>
     <use xlink:href="#DejaVuSans-20" transform="translate(273.144531 0)"/>
     <use xlink:href="#DejaVuSans-3d" transform="translate(304.931641 0)"/>
     <use xlink:href="#DejaVuSans-20" transform="translate(388.720703 0)"/>
     <use xlink:href="#DejaVuSans-5b" transform="translate(420.507812 0)"/>
     <use xlink:href="#DejaVuSans-30" transform="translate(459.521484 0)"/>
     <use xlink:href="#DejaVuSans-2c" transform="translate(523.144531 0)"/>
     <use xlink:href="#DejaVuSans-20" transform="translate(554.931641 0)"/>
     <use xlink:href="#DejaVuSans-33" transform="translate(586.71875 0)"/>
     <use xlink:href="#DejaVuSans-37" transform="translate(650.341797 0)"/>
     <use xlink:href="#DejaVuSans-2c" transform="translate(713.964844 0)"/>
     <use xlink:href="#DejaVuSans-20" transform="translate(745.751953 0)"/>
     <use xlink:href="#DejaVuSans-34" transform="translate(777.539062 0)"/>
     <use xlink:href="#DejaVuSans-34" transform="translate(841.162109 0)"/>
     <use xlink:href="#DejaVuSans-5d" transform="translate(904.785156 0)"/>
    </g>
   </g>
   <g id="text_16">
    <!--   False -->
    <g transform="translate(132.75 53.4) scale(0.051358 -0.051358)">
     <defs>
      <path id="DejaVuSans-46" d="M 628 4666 
L 3309 4666 
L 3309 4134 
L 1259 4134 
L 1259 2759 
L 3109 2759 
L 3109 2228 
L 1259 2228 
L 1259 0 
L 628 0 
L 628 4666 
z
" transform="scale(0.015625)"/>
     </defs>
     <use xlink:href="#DejaVuSans-20"/>
     <use xlink:href="#DejaVuSans-20" transform="translate(31.787109 0)"/>
     <use xlink:href="#DejaVuSans-46" transform="translate(63.574219 0)"/>
     <use xlink:href="#DejaVuSans-61" transform="translate(111.96875 0)"/>
     <use xlink:href="#DejaVuSans-6c" transform="translate(173.248047 0)"/>
     <use xlink:href="#DejaVuSans-73" transform="translate(201.03125 0)"/>
     <use xlink:href="#DejaVuSans-65" transform="translate(253.130859 0)"/>
    </g>
   </g>
   <g id="patch_30">
    <path d="M 118.8 30.3 
Q 118.8 30.3 118.8 30.3 
" style="fill: none; stroke: #000000; stroke-linecap: round"/>
   </g>
   <g id="text_17">
    <g id="patch_31">
     <path d="M 90.876327 46.341377 
L 146.723673 46.341377 
L 146.723673 14.258623 
L 90.876327 14.258623 
z
" style="fill: #f7f3fd; stroke: #000000; stroke-linejoin: miter"/>
    </g>
    <!-- node #0 -->
    <g transform="translate(107.789418 20.215299) scale(0.051358 -0.051358)">
     <use xlink:href="#DejaVuSans-6e"/>
     <use xlink:href="#DejaVuSans-6f" transform="translate(63.378906 0)"/>
     <use xlink:href="#DejaVuSans-64" transform="translate(124.560547 0)"/>
     <use xlink:href="#DejaVuSans-65" transform="translate(188.037109 0)"/>
     <use xlink:href="#DejaVuSans-20" transform="translate(249.560547 0)"/>
     <use xlink:href="#DejaVuSans-23" transform="translate(281.347656 0)"/>
     <use xlink:href="#DejaVuSans-30" transform="translate(365.136719 0)"/>
    </g>
    <!-- x[3] &lt;= 0.8 -->
    <g transform="translate(103.623036 25.966224) scale(0.051358 -0.051358)">
     <use xlink:href="#DejaVuSans-78"/>
     <use xlink:href="#DejaVuSans-5b" transform="translate(59.179688 0)"/>
     <use xlink:href="#DejaVuSans-33" transform="translate(98.193359 0)"/>
     <use xlink:href="#DejaVuSans-5d" transform="translate(161.816406 0)"/>
     <use xlink:href="#DejaVuSans-20" transform="translate(200.830078 0)"/>
     <use xlink:href="#DejaVuSans-3c" transform="translate(232.617188 0)"/>
     <use xlink:href="#DejaVuSans-3d" transform="translate(316.40625 0)"/>
     <use xlink:href="#DejaVuSans-20" transform="translate(400.195312 0)"/>
     <use xlink:href="#DejaVuSans-30" transform="translate(431.982422 0)"/>
     <use xlink:href="#DejaVuSans-2e" transform="translate(495.605469 0)"/>
     <use xlink:href="#DejaVuSans-38" transform="translate(527.392578 0)"/>
    </g>
    <!-- gini = 0.665 -->
    <g transform="translate(102.980263 31.717148) scale(0.051358 -0.051358)">
     <use xlink:href="#DejaVuSans-67"/>
     <use xlink:href="#DejaVuSans-69" transform="translate(63.476562 0)"/>
     <use xlink:href="#DejaVuSans-6e" transform="translate(91.259766 0)"/>
     <use xlink:href="#DejaVuSans-69" transform="translate(154.638672 0)"/>
     <use xlink:href="#DejaVuSans-20" transform="translate(182.421875 0)"/>
     <use xlink:href="#DejaVuSans-3d" transform="translate(214.208984 0)"/>
     <use xlink:href="#DejaVuSans-20" transform="translate(297.998047 0)"/>
     <use xlink:href="#DejaVuSans-30" transform="translate(329.785156 0)"/>
     <use xlink:href="#DejaVuSans-2e" transform="translate(393.408203 0)"/>
     <use xlink:href="#DejaVuSans-36" transform="translate(425.195312 0)"/>
     <use xlink:href="#DejaVuSans-36" transform="translate(488.818359 0)"/>
     <use xlink:href="#DejaVuSans-35" transform="translate(552.441406 0)"/>
    </g>
    <!-- samples = 120 -->
    <g transform="translate(99.440603 37.468072) scale(0.051358 -0.051358)">
     <use xlink:href="#DejaVuSans-73"/>
     <use xlink:href="#DejaVuSans-61" transform="translate(52.099609 0)"/>
     <use xlink:href="#DejaVuSans-6d" transform="translate(113.378906 0)"/>
     <use xlink:href="#DejaVuSans-70" transform="translate(210.791016 0)"/>
     <use xlink:href="#DejaVuSans-6c" transform="translate(274.267578 0)"/>
     <use xlink:href="#DejaVuSans-65" transform="translate(302.050781 0)"/>
     <use xlink:href="#DejaVuSans-73" transform="translate(363.574219 0)"/>
     <use xlink:href="#DejaVuSans-20" transform="translate(415.673828 0)"/>
     <use xlink:href="#DejaVuSans-3d" transform="translate(447.460938 0)"/>
     <use xlink:href="#DejaVuSans-20" transform="translate(531.25 0)"/>
     <use xlink:href="#DejaVuSans-31" transform="translate(563.037109 0)"/>
     <use xlink:href="#DejaVuSans-32" transform="translate(626.660156 0)"/>
     <use xlink:href="#DejaVuSans-30" transform="translate(690.283203 0)"/>
    </g>
    <!-- value = [39, 37, 44] -->
    <g transform="translate(92.93063 43.218997) scale(0.051358 -0.051358)">
     <use xlink:href="#DejaVuSans-76"/>
     <use xlink:href="#DejaVuSans-61" transform="translate(59.179688 0)"/>
     <use xlink:href="#DejaVuSans-6c" transform="translate(120.458984 0)"/>
     <use xlink:href="#DejaVuSans-75" transform="translate(148.242188 0)"/>
     <use xlink:href="#DejaVuSans-65" transform="translate(211.621094 0)"/>
     <use xlink:href="#DejaVuSans-20" transform="translate(273.144531 0)"/>
     <use xlink:href="#DejaVuSans-3d" transform="translate(304.931641 0)"/>
     <use xlink:href="#DejaVuSans-20" transform="translate(388.720703 0)"/>
     <use xlink:href="#DejaVuSans-5b" transform="translate(420.507812 0)"/>
     <use xlink:href="#DejaVuSans-33" transform="translate(459.521484 0)"/>
     <use xlink:href="#DejaVuSans-39" transform="translate(523.144531 0)"/>
     <use xlink:href="#DejaVuSans-2c" transform="translate(586.767578 0)"/>
     <use xlink:href="#DejaVuSans-20" transform="translate(618.554688 0)"/>
     <use xlink:href="#DejaVuSans-33" transform="translate(650.341797 0)"/>
     <use xlink:href="#DejaVuSans-37" transform="translate(713.964844 0)"/>
     <use xlink:href="#DejaVuSans-2c" transform="translate(777.587891 0)"/>
     <use xlink:href="#DejaVuSans-20" transform="translate(809.375 0)"/>
     <use xlink:href="#DejaVuSans-34" transform="translate(841.162109 0)"/>
     <use xlink:href="#DejaVuSans-34" transform="translate(904.785156 0)"/>
     <use xlink:href="#DejaVuSans-5d" transform="translate(968.408203 0)"/>
    </g>
   </g>
  </g>
 </g>
</svg>
